G04*
G04 #@! TF.GenerationSoftware,Altium Limited,Altium Designer,21.0.8 (223)*
G04*
G04 Layer_Physical_Order=1*
G04 Layer_Color=255*
%FSLAX25Y25*%
%MOIN*%
G70*
G04*
G04 #@! TF.SameCoordinates,86129925-6DC0-4F64-9783-D3B182DB2879*
G04*
G04*
G04 #@! TF.FilePolarity,Positive*
G04*
G01*
G75*
%ADD13C,0.01000*%
%ADD47R,0.05500X0.05000*%
%ADD48R,0.03543X0.02362*%
%ADD49R,0.03740X0.03937*%
%ADD50C,0.04000*%
%ADD51R,0.05906X0.02362*%
%ADD52R,0.03937X0.03740*%
%ADD53R,0.05236X0.05236*%
%ADD54R,0.03543X0.07874*%
%ADD55R,0.07874X0.03543*%
%ADD56R,0.04000X0.02500*%
G04:AMPARAMS|DCode=57|XSize=31.5mil|YSize=13.78mil|CornerRadius=1.72mil|HoleSize=0mil|Usage=FLASHONLY|Rotation=90.000|XOffset=0mil|YOffset=0mil|HoleType=Round|Shape=RoundedRectangle|*
%AMROUNDEDRECTD57*
21,1,0.03150,0.01034,0,0,90.0*
21,1,0.02805,0.01378,0,0,90.0*
1,1,0.00345,0.00517,0.01403*
1,1,0.00345,0.00517,-0.01403*
1,1,0.00345,-0.00517,-0.01403*
1,1,0.00345,-0.00517,0.01403*
%
%ADD57ROUNDEDRECTD57*%
%ADD58R,0.09000X0.09000*%
G04:AMPARAMS|DCode=59|XSize=33.47mil|YSize=13.78mil|CornerRadius=1.72mil|HoleSize=0mil|Usage=FLASHONLY|Rotation=180.000|XOffset=0mil|YOffset=0mil|HoleType=Round|Shape=RoundedRectangle|*
%AMROUNDEDRECTD59*
21,1,0.03347,0.01034,0,0,180.0*
21,1,0.03002,0.01378,0,0,180.0*
1,1,0.00345,-0.01501,0.00517*
1,1,0.00345,0.01501,0.00517*
1,1,0.00345,0.01501,-0.00517*
1,1,0.00345,-0.01501,-0.00517*
%
%ADD59ROUNDEDRECTD59*%
%ADD60R,0.02362X0.03543*%
%ADD61R,0.03347X0.04724*%
%ADD62R,0.02362X0.04724*%
%ADD63R,0.05315X0.01575*%
%ADD64C,0.02000*%
%ADD65C,0.01500*%
%ADD66R,0.04000X0.04000*%
%ADD67O,0.06500X0.07500*%
%ADD68C,0.15748*%
%ADD69C,0.01181*%
%ADD70O,0.12000X0.06400*%
%ADD71O,0.12000X0.06200*%
%ADD72R,0.12000X0.06400*%
%ADD73C,0.02200*%
G04:AMPARAMS|DCode=74|XSize=78.74mil|YSize=47.24mil|CornerRadius=14.17mil|HoleSize=0mil|Usage=FLASHONLY|Rotation=0.000|XOffset=0mil|YOffset=0mil|HoleType=Round|Shape=RoundedRectangle|*
%AMROUNDEDRECTD74*
21,1,0.07874,0.01890,0,0,0.0*
21,1,0.05039,0.04724,0,0,0.0*
1,1,0.02835,0.02520,-0.00945*
1,1,0.02835,-0.02520,-0.00945*
1,1,0.02835,-0.02520,0.00945*
1,1,0.02835,0.02520,0.00945*
%
%ADD74ROUNDEDRECTD74*%
%ADD75C,0.02400*%
G36*
X68465Y193244D02*
X67144Y191923D01*
X67100Y191896D01*
X66360Y191209D01*
X66117Y191013D01*
X66098Y191000D01*
X65736D01*
X65660Y191015D01*
X65583Y191000D01*
X62500D01*
Y183000D01*
X63126D01*
X63204Y182963D01*
X63415Y182734D01*
X63528Y182500D01*
X63500Y182395D01*
Y182197D01*
X63474Y182000D01*
X63500Y181803D01*
Y181605D01*
X63551Y181413D01*
X63577Y181217D01*
X63653Y181034D01*
X63704Y180842D01*
X63804Y180670D01*
X63880Y180487D01*
X64044Y180201D01*
X63299Y179456D01*
X62773Y178544D01*
X62500Y177527D01*
Y176473D01*
X62773Y175456D01*
X63299Y174544D01*
X63343Y174500D01*
X63299Y174456D01*
X62773Y173544D01*
X62500Y172527D01*
Y171473D01*
X62773Y170456D01*
X63299Y169544D01*
X63343Y169500D01*
X63299Y169456D01*
X62773Y168544D01*
X62500Y167527D01*
Y166473D01*
X62773Y165456D01*
X63299Y164544D01*
X64044Y163799D01*
X64956Y163273D01*
X65973Y163000D01*
X67027D01*
X68044Y163273D01*
X68956Y163799D01*
X69131Y163974D01*
X71000D01*
X71783Y164077D01*
X72513Y164380D01*
X73140Y164860D01*
X76358Y168079D01*
X76799Y167843D01*
X76626Y166972D01*
Y165027D01*
X77005Y163120D01*
X77750Y161323D01*
X78830Y159706D01*
X79280Y159256D01*
X79089Y158794D01*
X58794D01*
Y193706D01*
X68273D01*
X68465Y193244D01*
D02*
G37*
G36*
X178938Y193160D02*
X178886Y192974D01*
X178890Y192760D01*
X178949Y192518D01*
X179064Y192249D01*
X179234Y191953D01*
X179460Y191629D01*
X179742Y191277D01*
X180472Y190491D01*
X179156Y188978D01*
X178740Y189380D01*
X177998Y190010D01*
X177671Y190239D01*
X177373Y190411D01*
X177105Y190524D01*
X176866Y190581D01*
X176657Y190579D01*
X176478Y190521D01*
X176328Y190404D01*
X179046Y193319D01*
X178938Y193160D01*
D02*
G37*
G36*
X69902Y188988D02*
X69505Y188577D01*
X68880Y187840D01*
X68653Y187514D01*
X68482Y187217D01*
X68368Y186949D01*
X68310Y186709D01*
X68309Y186497D01*
X68364Y186314D01*
X68476Y186160D01*
X65660Y188976D01*
X65814Y188864D01*
X65997Y188809D01*
X66209Y188810D01*
X66449Y188868D01*
X66717Y188982D01*
X67014Y189153D01*
X67340Y189380D01*
X67694Y189664D01*
X68488Y190402D01*
X69902Y188988D01*
D02*
G37*
G36*
X174291Y193206D02*
X174277Y193172D01*
X174174Y192389D01*
Y192349D01*
X174277Y191566D01*
X174329Y191438D01*
Y190735D01*
X174305Y190660D01*
X174316Y190496D01*
X174290Y190333D01*
X174329Y190164D01*
Y189380D01*
X174329D01*
X174240Y188917D01*
X173329D01*
Y187988D01*
X173290Y187987D01*
X173234Y187975D01*
X167190D01*
X167177Y187982D01*
X166363Y188200D01*
X165521D01*
X164707Y187982D01*
X164694Y187975D01*
X152326D01*
X152259Y187988D01*
X152243Y187985D01*
X152226Y187988D01*
X151428Y187975D01*
X145010D01*
X144873Y187984D01*
X144806Y187975D01*
X144740Y187988D01*
X144673Y187975D01*
X142226D01*
X142159Y187988D01*
X142143Y187985D01*
X142126Y187988D01*
X141328Y187975D01*
X134910D01*
X134773Y187984D01*
X134706Y187975D01*
X134640Y187988D01*
X134573Y187975D01*
X122804D01*
X120491Y190289D01*
X119864Y190770D01*
X119134Y191072D01*
X118351Y191175D01*
X104772D01*
Y191330D01*
X97228D01*
Y191175D01*
X94771D01*
Y191330D01*
X92098D01*
X90184Y193244D01*
X90375Y193706D01*
X174083D01*
X174291Y193206D01*
D02*
G37*
G36*
X152259Y183949D02*
X151879Y183944D01*
X150979Y183874D01*
X150759Y183832D01*
X150579Y183780D01*
X150439Y183719D01*
X150339Y183649D01*
X150279Y183569D01*
X150259Y183480D01*
Y185818D01*
X150279Y185843D01*
X150339Y185865D01*
X150439Y185885D01*
X150579Y185902D01*
X150979Y185928D01*
X152259Y185949D01*
Y183949D01*
D02*
G37*
G36*
X146740Y185818D02*
Y183480D01*
X146720Y183569D01*
X146660Y183649D01*
X146560Y183719D01*
X146420Y183780D01*
X146240Y183832D01*
X146020Y183874D01*
X145760Y183907D01*
X145120Y183944D01*
X144740Y183949D01*
Y185949D01*
X146740Y185818D01*
D02*
G37*
G36*
X142159Y183949D02*
X141779Y183944D01*
X140879Y183874D01*
X140659Y183832D01*
X140479Y183780D01*
X140339Y183719D01*
X140239Y183649D01*
X140179Y183569D01*
X140159Y183480D01*
Y185818D01*
X140179Y185843D01*
X140239Y185865D01*
X140339Y185885D01*
X140479Y185902D01*
X140879Y185928D01*
X142159Y185949D01*
Y183949D01*
D02*
G37*
G36*
X136640Y185818D02*
Y183480D01*
X136620Y183569D01*
X136560Y183649D01*
X136460Y183719D01*
X136320Y183780D01*
X136140Y183832D01*
X135920Y183874D01*
X135660Y183907D01*
X135020Y183944D01*
X134640Y183949D01*
Y185949D01*
X136640Y185818D01*
D02*
G37*
G36*
X175341Y182992D02*
X175321Y183174D01*
X175261Y183337D01*
X175162Y183480D01*
X175022Y183605D01*
X174841Y183710D01*
X174621Y183796D01*
X174362Y183863D01*
X174062Y183911D01*
X173722Y183939D01*
X173342Y183949D01*
Y185949D01*
X173722Y185958D01*
X174062Y185987D01*
X174362Y186035D01*
X174621Y186102D01*
X174841Y186188D01*
X175022Y186293D01*
X175162Y186417D01*
X175261Y186561D01*
X175321Y186724D01*
X175341Y186905D01*
Y182992D01*
D02*
G37*
G36*
X155300Y181921D02*
Y181079D01*
X155518Y180265D01*
X155939Y179535D01*
X156535Y178939D01*
X157265Y178518D01*
X158079Y178300D01*
X158211D01*
X158474Y178000D01*
X158577Y177217D01*
X158879Y176487D01*
X159134Y176155D01*
X159044Y175701D01*
X158500Y175157D01*
X157956Y175701D01*
X157044Y176227D01*
X156027Y176500D01*
X154973D01*
X153956Y176227D01*
X153044Y175701D01*
X152772Y175428D01*
X152272Y175636D01*
Y176194D01*
X152299Y176331D01*
X152272Y176468D01*
Y176477D01*
X152279Y176611D01*
X152272Y176634D01*
Y180681D01*
X144728D01*
Y176634D01*
X144720Y176611D01*
X144728Y176477D01*
Y176468D01*
X144701Y176331D01*
X144728Y176194D01*
Y174319D01*
X144728D01*
X145134Y173874D01*
X145109Y173516D01*
X144756Y173244D01*
X143914Y172148D01*
X143700Y171631D01*
X143200D01*
X142986Y172148D01*
X142144Y173244D01*
X141838Y173479D01*
X141798Y173868D01*
X142172Y174319D01*
X142172D01*
Y176194D01*
X142199Y176331D01*
X142172Y176468D01*
Y176477D01*
X142180Y176611D01*
X142172Y176634D01*
Y180681D01*
X134628D01*
Y176634D01*
X134620Y176611D01*
X134628Y176477D01*
Y176468D01*
X134601Y176331D01*
X134628Y176194D01*
Y174319D01*
X134628D01*
X135034Y173874D01*
X135009Y173516D01*
X134656Y173244D01*
X133814Y172148D01*
X133750Y171993D01*
X133250D01*
X133186Y172148D01*
X132344Y173244D01*
X131693Y173744D01*
X131647Y174217D01*
X131639Y174622D01*
X131626Y174681D01*
Y181923D01*
X134553D01*
X134615Y181910D01*
X134628Y181910D01*
Y181468D01*
X136503D01*
X136640Y181441D01*
X136776Y181468D01*
X140023D01*
X140159Y181441D01*
X140296Y181468D01*
X142171D01*
Y181910D01*
X142184Y181910D01*
X142246Y181923D01*
X144653D01*
X144715Y181910D01*
X144728Y181910D01*
Y181468D01*
X146603D01*
X146740Y181441D01*
X146877Y181468D01*
X150122D01*
X150259Y181441D01*
X150396Y181468D01*
X152271D01*
Y181910D01*
X152284Y181910D01*
X152346Y181923D01*
X155299D01*
X155300Y181921D01*
D02*
G37*
G36*
X198575Y176122D02*
X198412Y176062D01*
X198269Y175962D01*
X198144Y175822D01*
X198039Y175642D01*
X197953Y175422D01*
X197886Y175162D01*
X197838Y174862D01*
X197810Y174522D01*
X197800Y174142D01*
X196962D01*
X197800Y173443D01*
X197906Y171245D01*
X194801Y173232D01*
X194991Y173136D01*
X195161Y173102D01*
X195311Y173133D01*
X195440Y173226D01*
X195550Y173382D01*
X195640Y173601D01*
X195710Y173884D01*
X195760Y174230D01*
X195786Y174579D01*
X195762Y174862D01*
X195714Y175162D01*
X195647Y175422D01*
X195561Y175642D01*
X195456Y175822D01*
X195331Y175962D01*
X195188Y176062D01*
X195025Y176122D01*
X194843Y176142D01*
X198757D01*
X198575Y176122D01*
D02*
G37*
G36*
X150115Y176311D02*
X149986Y176251D01*
X149872Y176151D01*
X149774Y176011D01*
X149690Y175831D01*
X149621Y175611D01*
X149568Y175351D01*
X149530Y175051D01*
X149508Y174711D01*
X149503Y174457D01*
X149510Y174097D01*
X149589Y173284D01*
X149659Y172953D01*
X149748Y172674D01*
X149857Y172445D01*
X149986Y172267D01*
X150135Y172140D01*
X150304Y172064D01*
X150492Y172038D01*
X146508D01*
X146696Y172064D01*
X146865Y172140D01*
X147014Y172267D01*
X147143Y172445D01*
X147252Y172674D01*
X147341Y172953D01*
X147411Y173284D01*
X147460Y173665D01*
X147490Y174097D01*
X147497Y174457D01*
X147492Y174711D01*
X147432Y175351D01*
X147379Y175611D01*
X147310Y175831D01*
X147227Y176011D01*
X147128Y176151D01*
X147014Y176251D01*
X146885Y176311D01*
X146740Y176331D01*
X150260D01*
X150115Y176311D01*
D02*
G37*
G36*
X140015D02*
X139886Y176251D01*
X139772Y176151D01*
X139673Y176011D01*
X139590Y175831D01*
X139522Y175611D01*
X139468Y175351D01*
X139430Y175051D01*
X139408Y174711D01*
X139402Y174457D01*
X139410Y174097D01*
X139489Y173284D01*
X139559Y172953D01*
X139648Y172674D01*
X139757Y172445D01*
X139886Y172267D01*
X140035Y172140D01*
X140204Y172064D01*
X140392Y172038D01*
X136408D01*
X136596Y172064D01*
X136765Y172140D01*
X136914Y172267D01*
X137043Y172445D01*
X137152Y172674D01*
X137241Y172953D01*
X137311Y173284D01*
X137360Y173665D01*
X137390Y174097D01*
X137398Y174457D01*
X137392Y174711D01*
X137332Y175351D01*
X137278Y175611D01*
X137210Y175831D01*
X137127Y176011D01*
X137028Y176151D01*
X136914Y176251D01*
X136785Y176311D01*
X136640Y176331D01*
X140160D01*
X140015Y176311D01*
D02*
G37*
G36*
X129610Y174097D02*
X129689Y173284D01*
X129759Y172953D01*
X129848Y172674D01*
X129957Y172445D01*
X130086Y172267D01*
X130235Y172140D01*
X130404Y172064D01*
X130592Y172038D01*
X126608D01*
X126796Y172064D01*
X126965Y172140D01*
X127114Y172267D01*
X127243Y172445D01*
X127352Y172674D01*
X127441Y172953D01*
X127511Y173284D01*
X127560Y173665D01*
X127590Y174097D01*
X127600Y174580D01*
X129600D01*
X129610Y174097D01*
D02*
G37*
G36*
X205975Y176122D02*
X205812Y176062D01*
X205669Y175962D01*
X205544Y175822D01*
X205439Y175642D01*
X205353Y175422D01*
X205286Y175162D01*
X205238Y174862D01*
X205221Y174652D01*
X205290Y173970D01*
X205359Y173662D01*
X205449Y173411D01*
X205559Y173217D01*
X205688Y173080D01*
X205838Y172999D01*
X206007Y172975D01*
X206196Y173008D01*
X202295Y171808D01*
X202467Y172035D01*
X202621Y172277D01*
X202756Y172532D01*
X202874Y172801D01*
X202974Y173085D01*
X203055Y173382D01*
X203118Y173693D01*
X203164Y174018D01*
X203191Y174357D01*
X203193Y174428D01*
X203190Y174522D01*
X203162Y174862D01*
X203114Y175162D01*
X203047Y175422D01*
X202961Y175642D01*
X202856Y175822D01*
X202731Y175962D01*
X202588Y176062D01*
X202425Y176122D01*
X202243Y176142D01*
X206156D01*
X205975Y176122D01*
D02*
G37*
G36*
X117528Y174390D02*
X119485Y172645D01*
X119632Y172555D01*
X119745Y172506D01*
X116060Y171613D01*
X116259Y171683D01*
X116398Y171784D01*
X116479Y171915D01*
X116501Y172077D01*
X116464Y172269D01*
X116369Y172491D01*
X116215Y172744D01*
X116002Y173027D01*
X115731Y173341D01*
X115401Y173685D01*
X117115Y174799D01*
X117528Y174390D01*
D02*
G37*
G36*
X193832Y179399D02*
Y178436D01*
X193774Y178000D01*
Y177840D01*
X193568Y177733D01*
X193495Y177647D01*
X193402Y177584D01*
X193242Y177344D01*
X193056Y177124D01*
X193022Y177016D01*
X192959Y176922D01*
X192903Y176640D01*
X192817Y176365D01*
X192826Y176253D01*
X192804Y176142D01*
X192860Y175859D01*
X192885Y175572D01*
X192938Y175472D01*
X192959Y175362D01*
X193120Y175122D01*
X193253Y174866D01*
X193129Y174383D01*
X193089Y174337D01*
X193084Y174331D01*
X193046Y174235D01*
X192983Y174154D01*
X192902Y173867D01*
X192858Y173754D01*
X192757Y173712D01*
X192269Y173338D01*
X195254Y170353D01*
X194546Y169647D01*
X191562Y172631D01*
X191188Y172143D01*
X190759Y171109D01*
X190613Y170000D01*
Y169000D01*
X190759Y167891D01*
X191188Y166857D01*
X191562Y166369D01*
X194546Y169353D01*
X194900Y169000D01*
X195254Y169353D01*
X198238Y166369D01*
X198612Y166857D01*
X199041Y167891D01*
X199187Y169000D01*
Y169084D01*
X199205Y169097D01*
X199390Y169061D01*
X199724Y168854D01*
X199885Y167630D01*
X200414Y166352D01*
X201256Y165256D01*
X201980Y164700D01*
X201810Y164200D01*
X192000D01*
Y153800D01*
X192624D01*
X192907Y153300D01*
X192768Y153068D01*
X192548Y153047D01*
X192135Y153039D01*
X192077Y153026D01*
X182253D01*
X179653Y155626D01*
X179860Y156126D01*
X181473D01*
X183380Y156505D01*
X185177Y157250D01*
X186794Y158330D01*
X188170Y159706D01*
X189250Y161323D01*
X189995Y163120D01*
X190374Y165027D01*
Y166972D01*
X189995Y168880D01*
X189250Y170677D01*
X188170Y172294D01*
X186937Y173527D01*
X187075Y174028D01*
X187094Y174052D01*
X187283Y174077D01*
X188013Y174380D01*
X188640Y174860D01*
X193370Y179590D01*
X193832Y179399D01*
D02*
G37*
G36*
X162857Y171004D02*
X162730Y170824D01*
X162618Y170637D01*
X162520Y170444D01*
X162437Y170244D01*
X162370Y170038D01*
X162318Y169825D01*
X162280Y169605D01*
X162258Y169379D01*
X162250Y169146D01*
X160750D01*
X160742Y169379D01*
X160720Y169605D01*
X160682Y169825D01*
X160630Y170038D01*
X160563Y170244D01*
X160480Y170444D01*
X160382Y170637D01*
X160270Y170824D01*
X160143Y171004D01*
X160000Y171177D01*
X163000D01*
X162857Y171004D01*
D02*
G37*
G36*
X156858D02*
X156730Y170824D01*
X156617Y170637D01*
X156520Y170444D01*
X156438Y170244D01*
X156370Y170038D01*
X156317Y169825D01*
X156280Y169605D01*
X156257Y169379D01*
X156250Y169146D01*
X154750D01*
X154743Y169379D01*
X154720Y169605D01*
X154683Y169825D01*
X154630Y170038D01*
X154562Y170244D01*
X154480Y170444D01*
X154383Y170637D01*
X154270Y170824D01*
X154142Y171004D01*
X154000Y171177D01*
X157000D01*
X156858Y171004D01*
D02*
G37*
G36*
X119412Y182809D02*
X119412Y182809D01*
X120038Y182328D01*
X120768Y182026D01*
X121551Y181923D01*
X121551Y181923D01*
X125574D01*
Y174681D01*
X125561Y174622D01*
X125552Y174188D01*
X125530Y173867D01*
X125515Y173750D01*
X124856Y173244D01*
X124014Y172148D01*
X123485Y170870D01*
X123305Y169500D01*
Y168500D01*
X123485Y167130D01*
X124014Y165852D01*
X124856Y164756D01*
X125952Y163914D01*
X127229Y163385D01*
X128600Y163205D01*
X129888Y163374D01*
X130212Y162991D01*
X129652Y162431D01*
X129171Y161804D01*
X128869Y161074D01*
X128780Y160402D01*
X124544D01*
X124412Y160722D01*
X123931Y161348D01*
X123931Y161348D01*
X121640Y163640D01*
X121013Y164120D01*
X120676Y164260D01*
X120649Y164691D01*
X120666Y164805D01*
X121131Y165162D01*
X118147Y168147D01*
X118853Y168853D01*
X121838Y165869D01*
X122212Y166357D01*
X122641Y167391D01*
X122787Y168500D01*
Y169500D01*
X122641Y170609D01*
X122212Y171643D01*
X121758Y172235D01*
X121754Y172332D01*
X121784Y172470D01*
X121738Y172726D01*
X121727Y172986D01*
X121668Y173114D01*
X121643Y173253D01*
X121502Y173472D01*
X121392Y173708D01*
X121289Y173804D01*
X121213Y173922D01*
X120999Y174071D01*
X120807Y174247D01*
X120714Y174281D01*
X118925Y175876D01*
X118551Y176247D01*
X118495Y176284D01*
X110118Y184661D01*
X110309Y185123D01*
X117097D01*
X119412Y182809D01*
D02*
G37*
G36*
X163561Y155370D02*
X163591Y155285D01*
X163641Y155210D01*
X163711Y155145D01*
X163801Y155090D01*
X163911Y155045D01*
X164041Y155010D01*
X164191Y154985D01*
X164361Y154970D01*
X164551Y154965D01*
Y153965D01*
X164361Y153960D01*
X164191Y153945D01*
X164041Y153920D01*
X163911Y153885D01*
X163801Y153840D01*
X163711Y153785D01*
X163641Y153720D01*
X163591Y153645D01*
X163561Y153560D01*
X163551Y153465D01*
Y155465D01*
X163561Y155370D01*
D02*
G37*
G36*
X162503Y152690D02*
X162514Y152574D01*
X162531Y152464D01*
X162554Y152360D01*
X162585Y152262D01*
X162622Y152170D01*
X162667Y152083D01*
X162718Y152002D01*
X162775Y151927D01*
X162840Y151857D01*
X161160D01*
X161225Y151927D01*
X161282Y152002D01*
X161333Y152083D01*
X161378Y152170D01*
X161415Y152262D01*
X161446Y152360D01*
X161469Y152464D01*
X161486Y152574D01*
X161497Y152690D01*
X161500Y152811D01*
X162500D01*
X162503Y152690D01*
D02*
G37*
G36*
X194756Y148008D02*
X194730Y148196D01*
X194653Y148365D01*
X194524Y148514D01*
X194343Y148643D01*
X194111Y148752D01*
X193827Y148841D01*
X193492Y148911D01*
X193105Y148960D01*
X192666Y148990D01*
X192176Y149000D01*
Y151000D01*
X192666Y151010D01*
X193492Y151089D01*
X193827Y151159D01*
X194111Y151248D01*
X194343Y151357D01*
X194524Y151486D01*
X194653Y151635D01*
X194730Y151804D01*
X194756Y151992D01*
Y148008D01*
D02*
G37*
G36*
X169162Y147734D02*
X168970Y147272D01*
X159791D01*
Y139728D01*
Y134728D01*
Y129728D01*
Y124728D01*
Y119728D01*
Y114728D01*
Y109728D01*
Y104728D01*
Y99728D01*
X160224D01*
X160282Y99694D01*
X160596Y99228D01*
X160451Y98500D01*
X160563Y97935D01*
X160246Y97549D01*
X158200D01*
Y98121D01*
X157982Y98935D01*
X157561Y99665D01*
X156965Y100261D01*
X156235Y100682D01*
X155421Y100900D01*
X154579D01*
X153765Y100682D01*
X153035Y100261D01*
X152823Y100049D01*
X109000D01*
X108025Y99855D01*
X107198Y99302D01*
X106595Y98700D01*
X106579D01*
X105765Y98482D01*
X105317Y98224D01*
X104817Y98512D01*
Y128209D01*
X104817Y128209D01*
X104714Y128992D01*
X104621Y129218D01*
X104482Y129735D01*
X104061Y130465D01*
X103551Y130974D01*
X103674Y131474D01*
X107629D01*
X113553Y125549D01*
X113580Y125505D01*
X114268Y124766D01*
X114463Y124522D01*
X114514Y124450D01*
X114508Y124300D01*
X114461Y124065D01*
X114493Y123906D01*
X114487Y123743D01*
X114570Y123519D01*
X114616Y123285D01*
X114707Y123150D01*
X114763Y122997D01*
X114926Y122822D01*
X115059Y122623D01*
X115193Y122533D01*
X115304Y122414D01*
X115476Y122335D01*
Y120669D01*
Y113445D01*
Y106928D01*
X118741Y110192D01*
X119448Y109485D01*
X116183Y106220D01*
X136454D01*
X133190Y109485D01*
X133897Y110192D01*
X137161Y106928D01*
Y113445D01*
Y120669D01*
Y127198D01*
X133897Y123934D01*
X133190Y124641D01*
X136454Y127905D01*
X121047D01*
X120968Y128078D01*
X120849Y128188D01*
X120759Y128323D01*
X120560Y128456D01*
X120385Y128619D01*
X120232Y128675D01*
X120097Y128765D01*
X119863Y128812D01*
X119638Y128895D01*
X119476Y128889D01*
X119317Y128921D01*
X119082Y128874D01*
X118932Y128868D01*
X118882Y128903D01*
X118269Y129423D01*
X117905Y129774D01*
X117854Y129807D01*
X111021Y136640D01*
X110395Y137120D01*
X109665Y137423D01*
X108882Y137526D01*
X99940D01*
X99898Y137536D01*
X99831Y137540D01*
X99828Y137607D01*
X99817Y137648D01*
Y148528D01*
X108591D01*
Y147822D01*
X108809Y147008D01*
X109231Y146278D01*
X109827Y145682D01*
X110556Y145261D01*
X111370Y145043D01*
X112213D01*
X113026Y145261D01*
X113756Y145682D01*
X114288Y146214D01*
X114820Y145682D01*
X115550Y145261D01*
X116363Y145043D01*
X117206D01*
X118020Y145261D01*
X118749Y145682D01*
X119345Y146278D01*
X119767Y147008D01*
X119985Y147822D01*
Y148528D01*
X129398D01*
X129687Y148028D01*
X129518Y147735D01*
X129300Y146921D01*
Y146079D01*
X129518Y145265D01*
X129939Y144535D01*
X130535Y143939D01*
X131265Y143518D01*
X132079Y143300D01*
X132921D01*
X133735Y143518D01*
X134065Y143709D01*
X134092Y143710D01*
X134170Y143711D01*
X134245Y143726D01*
X139500D01*
X140218Y143821D01*
X140887Y144098D01*
X141461Y144539D01*
X143753Y146830D01*
X144193Y147405D01*
X144471Y148073D01*
X144530Y148528D01*
X159947D01*
X160035Y148439D01*
X160765Y148018D01*
X161579Y147800D01*
X162421D01*
X163235Y148018D01*
X163965Y148439D01*
X164053Y148528D01*
X165563D01*
Y150679D01*
X166025Y150870D01*
X169162Y147734D01*
D02*
G37*
G36*
X133381Y147323D02*
X133417Y147308D01*
X133466Y147294D01*
X133527Y147282D01*
X133601Y147273D01*
X133786Y147258D01*
X134157Y147250D01*
Y145750D01*
X134021Y145749D01*
X133527Y145718D01*
X133466Y145706D01*
X133417Y145692D01*
X133381Y145677D01*
X133357Y145660D01*
Y147340D01*
X133381Y147323D01*
D02*
G37*
G36*
X207058Y142997D02*
X206884Y142814D01*
X206565Y142421D01*
X206420Y142212D01*
X206161Y141767D01*
X206046Y141532D01*
X205845Y141035D01*
X205760Y140774D01*
X205091Y144214D01*
X205138Y144059D01*
X205207Y143948D01*
X205301Y143882D01*
X205418Y143861D01*
X205558Y143884D01*
X205722Y143953D01*
X205910Y144066D01*
X206121Y144224D01*
X206355Y144426D01*
X206613Y144674D01*
X207058Y142997D01*
D02*
G37*
G36*
X97811Y137120D02*
X97871Y136780D01*
X97971Y136480D01*
X98111Y136220D01*
X98291Y136000D01*
X98511Y135820D01*
X98771Y135680D01*
X99071Y135580D01*
X99411Y135520D01*
X99791Y135500D01*
Y133500D01*
X99411Y133480D01*
X99071Y133420D01*
X98771Y133320D01*
X98511Y133180D01*
X98291Y133000D01*
X98111Y132780D01*
X97971Y132520D01*
X97871Y132220D01*
X97811Y131880D01*
X97791Y131500D01*
X95791Y134500D01*
X97791Y137500D01*
X97811Y137120D01*
D02*
G37*
G36*
X179757Y131201D02*
X179780Y130944D01*
X179817Y130717D01*
X179870Y130520D01*
X179938Y130354D01*
X180020Y130218D01*
X180117Y130112D01*
X180230Y130036D01*
X180358Y129991D01*
X180500Y129976D01*
X177500D01*
X177643Y129991D01*
X177770Y130036D01*
X177883Y130112D01*
X177980Y130218D01*
X178062Y130354D01*
X178130Y130520D01*
X178182Y130717D01*
X178220Y130944D01*
X178243Y131201D01*
X178250Y131488D01*
X179750D01*
X179757Y131201D01*
D02*
G37*
G36*
X188008Y129289D02*
X188068Y128649D01*
X188121Y128389D01*
X188190Y128169D01*
X188274Y127989D01*
X188372Y127849D01*
X188486Y127749D01*
X188615Y127689D01*
X188760Y127669D01*
X185240D01*
X185385Y127689D01*
X185514Y127749D01*
X185628Y127849D01*
X185726Y127989D01*
X185810Y128169D01*
X185879Y128389D01*
X185932Y128649D01*
X185970Y128949D01*
X185992Y129289D01*
X186000Y129669D01*
X188000D01*
X188008Y129289D01*
D02*
G37*
G36*
X130949Y123281D02*
X130939Y123283D01*
X130909Y123284D01*
X129931Y123287D01*
X128925Y123281D01*
Y125294D01*
X128935Y125292D01*
X128965Y125291D01*
X129931Y125287D01*
X130949Y125294D01*
Y123281D01*
D02*
G37*
G36*
X123725D02*
X123715Y123283D01*
X123684Y123284D01*
X122707Y123287D01*
X121701Y123281D01*
Y125294D01*
X121711Y125292D01*
X121741Y125291D01*
X122707Y125287D01*
X123725Y125294D01*
Y123281D01*
D02*
G37*
G36*
X116900Y127910D02*
X117636Y127286D01*
X117962Y127058D01*
X118259Y126888D01*
X118528Y126773D01*
X118768Y126715D01*
X118979Y126714D01*
X119162Y126770D01*
X119317Y126882D01*
X116500Y124065D01*
X116612Y124220D01*
X116668Y124403D01*
X116666Y124614D01*
X116609Y124854D01*
X116494Y125123D01*
X116323Y125420D01*
X116096Y125745D01*
X115812Y126100D01*
X115074Y126893D01*
X116488Y128308D01*
X116900Y127910D01*
D02*
G37*
G36*
X134548Y121683D02*
X134547Y121653D01*
X134543Y120675D01*
X134549Y119657D01*
X132537D01*
X132538Y119667D01*
X132539Y119698D01*
X132543Y120675D01*
X132537Y121693D01*
X134549D01*
X134548Y121683D01*
D02*
G37*
G36*
X127324D02*
X127323Y121653D01*
X127319Y120675D01*
X127325Y119657D01*
X125313D01*
X125314Y119667D01*
X125315Y119698D01*
X125319Y120675D01*
X125313Y121693D01*
X127325D01*
X127324Y121683D01*
D02*
G37*
G36*
X120099D02*
X120098Y121653D01*
X120095Y120675D01*
X120101Y119657D01*
X118088D01*
X118090Y119667D01*
X118091Y119698D01*
X118095Y120675D01*
X118088Y121693D01*
X120101D01*
X120099Y121683D01*
D02*
G37*
G36*
X130949Y116057D02*
X130939Y116058D01*
X130909Y116059D01*
X129931Y116063D01*
X128925Y116057D01*
Y118069D01*
X128935Y118068D01*
X128965Y118067D01*
X129931Y118063D01*
X130949Y118069D01*
Y116057D01*
D02*
G37*
G36*
X123725D02*
X123715Y116058D01*
X123684Y116059D01*
X122707Y116063D01*
X121701Y116057D01*
Y118069D01*
X121711Y118068D01*
X121741Y118067D01*
X122707Y118063D01*
X123725Y118069D01*
Y116057D01*
D02*
G37*
G36*
X185241Y118182D02*
X185226Y118100D01*
X185181Y118026D01*
X185106Y117962D01*
X185001Y117905D01*
X184866Y117858D01*
X184701Y117819D01*
X184506Y117789D01*
X184281Y117767D01*
X183741Y117750D01*
Y119250D01*
X184026Y119257D01*
X184281Y119280D01*
X184506Y119317D01*
X184701Y119370D01*
X184866Y119438D01*
X185001Y119520D01*
X185106Y119617D01*
X185181Y119730D01*
X185226Y119858D01*
X185241Y120000D01*
Y118182D01*
D02*
G37*
G36*
X181753Y119858D02*
X181798Y119730D01*
X181873Y119617D01*
X181978Y119520D01*
X182113Y119438D01*
X182278Y119370D01*
X182473Y119317D01*
X182698Y119280D01*
X182953Y119257D01*
X183238Y119250D01*
Y117750D01*
X182953Y117743D01*
X182698Y117720D01*
X182473Y117683D01*
X182278Y117630D01*
X182113Y117562D01*
X181978Y117480D01*
X181873Y117383D01*
X181798Y117270D01*
X181753Y117142D01*
X181738Y117000D01*
Y120000D01*
X181753Y119858D01*
D02*
G37*
G36*
X192135Y146961D02*
X192577Y146952D01*
X192906Y146930D01*
X193041Y146913D01*
X193463Y146363D01*
X193577Y146275D01*
Y145775D01*
X193491Y145709D01*
X192658Y144622D01*
X192134Y143358D01*
X191955Y142000D01*
X192134Y140642D01*
X192658Y139378D01*
X193468Y138321D01*
X193545Y138172D01*
Y137828D01*
X193468Y137679D01*
X192658Y136622D01*
X192134Y135357D01*
X191955Y134000D01*
X192134Y132642D01*
X192658Y131378D01*
X193178Y130700D01*
X192931Y130200D01*
X192000D01*
Y119800D01*
X203100D01*
Y115904D01*
X202600Y115806D01*
X202586Y115839D01*
X202531Y116073D01*
X202437Y116204D01*
X202376Y116353D01*
X202206Y116524D01*
X202066Y116719D01*
X201948Y116791D01*
X199803Y114646D01*
X199097Y115354D01*
X200993Y117250D01*
X200690D01*
X200614Y117262D01*
X200476Y117355D01*
X199500Y117549D01*
X198006D01*
X197924Y117604D01*
X197699Y117791D01*
X197595Y117823D01*
X197504Y117884D01*
X197218Y117941D01*
X196940Y118028D01*
X196831Y118018D01*
X196724Y118039D01*
X196438Y117982D01*
X196285Y117968D01*
X195784D01*
X195632Y117982D01*
X195346Y118039D01*
X195239Y118018D01*
X195130Y118028D01*
X194940Y117968D01*
X192060D01*
X191870Y118028D01*
X191761Y118018D01*
X191654Y118039D01*
X191368Y117982D01*
X191272Y117974D01*
X190772Y118098D01*
Y122532D01*
X183750D01*
Y123319D01*
X190772D01*
Y127367D01*
X190779Y127390D01*
X190772Y127524D01*
Y127533D01*
X190799Y127669D01*
X190772Y127806D01*
Y129681D01*
X190039D01*
X190039Y129710D01*
X190026Y129769D01*
Y137429D01*
X190200Y138079D01*
Y138921D01*
X189982Y139735D01*
X189561Y140465D01*
X188965Y141061D01*
X188235Y141482D01*
X187421Y141700D01*
X186579D01*
X185765Y141482D01*
X185035Y141061D01*
X184439Y140465D01*
X184018Y139735D01*
X183800Y138921D01*
Y138079D01*
X183974Y137429D01*
Y132407D01*
X183750Y132000D01*
X181774D01*
Y146974D01*
X192077D01*
X192135Y146961D01*
D02*
G37*
G36*
X196724Y114000D02*
X196714Y114095D01*
X196684Y114180D01*
X196633Y114255D01*
X196562Y114320D01*
X196471Y114375D01*
X196360Y114420D01*
X196228Y114455D01*
X196076Y114480D01*
X196035Y114484D01*
X195994Y114480D01*
X195842Y114455D01*
X195710Y114420D01*
X195599Y114375D01*
X195508Y114320D01*
X195437Y114255D01*
X195387Y114180D01*
X195356Y114095D01*
X195346Y114000D01*
Y116000D01*
X195356Y115905D01*
X195387Y115820D01*
X195437Y115745D01*
X195508Y115680D01*
X195599Y115625D01*
X195710Y115580D01*
X195842Y115545D01*
X195994Y115520D01*
X196035Y115516D01*
X196076Y115520D01*
X196228Y115545D01*
X196360Y115580D01*
X196471Y115625D01*
X196562Y115680D01*
X196633Y115745D01*
X196684Y115820D01*
X196714Y115905D01*
X196724Y116000D01*
Y114000D01*
D02*
G37*
G36*
X194427Y115775D02*
X194502Y115718D01*
X194583Y115667D01*
X194670Y115622D01*
X194762Y115585D01*
X194860Y115554D01*
X194964Y115531D01*
X195074Y115514D01*
X195190Y115503D01*
X195311Y115500D01*
Y114500D01*
X195190Y114497D01*
X195074Y114486D01*
X194964Y114469D01*
X194860Y114446D01*
X194762Y114415D01*
X194670Y114378D01*
X194583Y114333D01*
X194502Y114282D01*
X194427Y114225D01*
X194357Y114160D01*
Y115840D01*
X194427Y115775D01*
D02*
G37*
G36*
X192643Y114160D02*
X192573Y114225D01*
X192498Y114282D01*
X192417Y114333D01*
X192330Y114378D01*
X192238Y114415D01*
X192140Y114446D01*
X192036Y114469D01*
X191926Y114486D01*
X191810Y114497D01*
X191689Y114500D01*
Y115500D01*
X191810Y115503D01*
X191926Y115514D01*
X192036Y115531D01*
X192140Y115554D01*
X192238Y115585D01*
X192330Y115622D01*
X192417Y115667D01*
X192498Y115718D01*
X192573Y115775D01*
X192643Y115840D01*
Y114160D01*
D02*
G37*
G36*
X191654Y114000D02*
X191644Y114095D01*
X191613Y114180D01*
X191563Y114255D01*
X191492Y114320D01*
X191401Y114375D01*
X191290Y114420D01*
X191158Y114455D01*
X191006Y114480D01*
X190834Y114495D01*
X190642Y114500D01*
Y115500D01*
X190834Y115505D01*
X191006Y115520D01*
X191158Y115545D01*
X191290Y115580D01*
X191401Y115625D01*
X191492Y115680D01*
X191563Y115745D01*
X191613Y115820D01*
X191644Y115905D01*
X191654Y116000D01*
Y114000D01*
D02*
G37*
G36*
X200623Y115147D02*
X200598Y115055D01*
X200600Y114948D01*
X200630Y114827D01*
X200688Y114693D01*
X200774Y114544D01*
X200888Y114382D01*
X201029Y114206D01*
X201395Y113812D01*
X200738Y113055D01*
X200530Y113256D01*
X200157Y113573D01*
X199994Y113688D01*
X199845Y113774D01*
X199711Y113832D01*
X199592Y113860D01*
X199488Y113860D01*
X199398Y113832D01*
X199324Y113774D01*
X200676Y115226D01*
X200623Y115147D01*
D02*
G37*
G36*
X134548Y114459D02*
X134547Y114428D01*
X134543Y113451D01*
X134549Y112433D01*
X132537D01*
X132538Y112443D01*
X132539Y112473D01*
X132543Y113451D01*
X132537Y114469D01*
X134549D01*
X134548Y114459D01*
D02*
G37*
G36*
X127324D02*
X127323Y114428D01*
X127319Y113451D01*
X127325Y112433D01*
X125313D01*
X125314Y112443D01*
X125315Y112473D01*
X125319Y113451D01*
X125313Y114469D01*
X127325D01*
X127324Y114459D01*
D02*
G37*
G36*
X120099D02*
X120098Y114428D01*
X120095Y113451D01*
X120101Y112433D01*
X118088D01*
X118090Y112443D01*
X118091Y112473D01*
X118095Y113451D01*
X118088Y114469D01*
X120101D01*
X120099Y114459D01*
D02*
G37*
G36*
X130949Y108833D02*
X130939Y108834D01*
X130909Y108835D01*
X129931Y108839D01*
X128925Y108833D01*
Y110845D01*
X128935Y110844D01*
X128965Y110843D01*
X129931Y110839D01*
X130949Y110845D01*
Y108833D01*
D02*
G37*
G36*
X123725D02*
X123715Y108834D01*
X123684Y108835D01*
X122707Y108839D01*
X121701Y108833D01*
Y110845D01*
X121711Y110844D01*
X121741Y110843D01*
X122707Y110839D01*
X123725Y110845D01*
Y108833D01*
D02*
G37*
G36*
X182433Y113538D02*
X176049Y107154D01*
X175549Y107361D01*
Y114000D01*
X182242D01*
X182433Y113538D01*
D02*
G37*
G36*
X173503Y106690D02*
X173514Y106574D01*
X173531Y106464D01*
X173554Y106360D01*
X173585Y106262D01*
X173622Y106170D01*
X173667Y106083D01*
X173718Y106002D01*
X173775Y105927D01*
X173840Y105857D01*
X172160D01*
X172225Y105927D01*
X172282Y106002D01*
X172333Y106083D01*
X172378Y106170D01*
X172415Y106262D01*
X172446Y106360D01*
X172469Y106464D01*
X172486Y106574D01*
X172497Y106690D01*
X172500Y106811D01*
X173500D01*
X173503Y106690D01*
D02*
G37*
G36*
X194405Y105645D02*
X194320Y105615D01*
X194245Y105564D01*
X194180Y105494D01*
X194125Y105403D01*
X194080Y105291D01*
X194045Y105160D01*
X194020Y105008D01*
X194005Y104836D01*
X194000Y104643D01*
X193000D01*
X192995Y104836D01*
X192980Y105008D01*
X192955Y105160D01*
X192920Y105291D01*
X192875Y105403D01*
X192820Y105494D01*
X192755Y105564D01*
X192680Y105615D01*
X192595Y105645D01*
X192500Y105656D01*
X194500D01*
X194405Y105645D01*
D02*
G37*
G36*
X194005Y103877D02*
X194020Y103705D01*
X194045Y103553D01*
X194080Y103421D01*
X194125Y103310D01*
X194180Y103219D01*
X194245Y103148D01*
X194320Y103098D01*
X194405Y103067D01*
X194500Y103057D01*
X192500D01*
X192595Y103067D01*
X192680Y103098D01*
X192755Y103148D01*
X192820Y103219D01*
X192875Y103310D01*
X192920Y103421D01*
X192955Y103553D01*
X192980Y103705D01*
X192995Y103877D01*
X193000Y104069D01*
X194000D01*
X194005Y103877D01*
D02*
G37*
G36*
X196724Y100900D02*
X196714Y100995D01*
X196684Y101080D01*
X196633Y101155D01*
X196562Y101220D01*
X196471Y101275D01*
X196360Y101320D01*
X196228Y101355D01*
X196076Y101380D01*
X195986Y101388D01*
X195895Y101380D01*
X195744Y101355D01*
X195612Y101320D01*
X195501Y101275D01*
X195410Y101220D01*
X195339Y101155D01*
X195288Y101080D01*
X195258Y100995D01*
X195248Y100900D01*
Y102900D01*
X195258Y102805D01*
X195288Y102720D01*
X195339Y102645D01*
X195410Y102580D01*
X195501Y102525D01*
X195612Y102480D01*
X195744Y102445D01*
X195895Y102420D01*
X195986Y102412D01*
X196076Y102420D01*
X196228Y102445D01*
X196360Y102480D01*
X196471Y102525D01*
X196562Y102580D01*
X196633Y102645D01*
X196684Y102720D01*
X196714Y102805D01*
X196724Y102900D01*
Y100900D01*
D02*
G37*
G36*
X190366Y112422D02*
X190630Y112031D01*
X190493Y111568D01*
X189630D01*
Y104449D01*
X188500D01*
X187524Y104255D01*
X186698Y103702D01*
X185044Y102049D01*
X178807D01*
X178616Y102511D01*
X188556Y112451D01*
X190341D01*
X190366Y112422D01*
D02*
G37*
G36*
X191740Y100900D02*
X191730Y100995D01*
X191700Y101080D01*
X191650Y101155D01*
X191580Y101220D01*
X191490Y101275D01*
X191380Y101320D01*
X191250Y101355D01*
X191100Y101380D01*
X190930Y101395D01*
X190740Y101400D01*
Y102400D01*
X190930Y102405D01*
X191100Y102420D01*
X191250Y102445D01*
X191380Y102480D01*
X191490Y102525D01*
X191580Y102580D01*
X191650Y102645D01*
X191700Y102720D01*
X191730Y102805D01*
X191740Y102900D01*
Y100900D01*
D02*
G37*
G36*
X176927Y100275D02*
X177002Y100218D01*
X177083Y100167D01*
X177170Y100122D01*
X177262Y100085D01*
X177360Y100054D01*
X177464Y100031D01*
X177574Y100014D01*
X177690Y100003D01*
X177811Y100000D01*
Y99000D01*
X177690Y98997D01*
X177574Y98986D01*
X177464Y98969D01*
X177360Y98946D01*
X177262Y98915D01*
X177170Y98878D01*
X177083Y98833D01*
X177002Y98782D01*
X176927Y98725D01*
X176857Y98660D01*
Y100340D01*
X176927Y100275D01*
D02*
G37*
G36*
X163926Y99275D02*
X164002Y99218D01*
X164083Y99167D01*
X164170Y99122D01*
X164262Y99085D01*
X164360Y99054D01*
X164464Y99031D01*
X164574Y99014D01*
X164690Y99003D01*
X164811Y99000D01*
Y98000D01*
X164690Y97997D01*
X164574Y97986D01*
X164464Y97969D01*
X164360Y97946D01*
X164262Y97915D01*
X164170Y97878D01*
X164083Y97833D01*
X164002Y97782D01*
X163926Y97725D01*
X163857Y97660D01*
Y99340D01*
X163926Y99275D01*
D02*
G37*
G36*
X169663Y99405D02*
X169693Y99320D01*
X169743Y99245D01*
X169813Y99180D01*
X169903Y99125D01*
X170013Y99080D01*
X170143Y99045D01*
X170293Y99020D01*
X170463Y99005D01*
X170653Y99000D01*
Y98000D01*
X170463Y97995D01*
X170293Y97980D01*
X170143Y97955D01*
X170013Y97920D01*
X169903Y97875D01*
X169813Y97820D01*
X169743Y97755D01*
X169693Y97680D01*
X169663Y97595D01*
X169653Y97500D01*
Y99500D01*
X169663Y99405D01*
D02*
G37*
G36*
X108634Y96427D02*
X108551Y96339D01*
X108476Y96250D01*
X108411Y96160D01*
X108354Y96070D01*
X108306Y95979D01*
X108267Y95887D01*
X108237Y95794D01*
X108216Y95701D01*
X108203Y95607D01*
X108200Y95512D01*
X107012Y96700D01*
X107107Y96703D01*
X107201Y96716D01*
X107294Y96737D01*
X107387Y96767D01*
X107479Y96806D01*
X107570Y96854D01*
X107660Y96911D01*
X107750Y96976D01*
X107839Y97051D01*
X107927Y97134D01*
X108634Y96427D01*
D02*
G37*
G36*
X192658Y97015D02*
X193489Y96294D01*
X193718Y96131D01*
X193921Y96008D01*
X194100Y95925D01*
X194255Y95880D01*
X194386Y95874D01*
X194491Y95908D01*
X191753Y94350D01*
X191825Y94418D01*
X191854Y94513D01*
X191841Y94637D01*
X191784Y94789D01*
X191685Y94969D01*
X191542Y95177D01*
X191357Y95414D01*
X190858Y95972D01*
X190544Y96293D01*
X192331Y97334D01*
X192658Y97015D01*
D02*
G37*
G36*
X181770Y95905D02*
X181800Y95820D01*
X181850Y95745D01*
X181920Y95680D01*
X182010Y95625D01*
X182120Y95580D01*
X182250Y95545D01*
X182400Y95520D01*
X182570Y95505D01*
X182760Y95500D01*
Y94500D01*
X182570Y94495D01*
X182400Y94480D01*
X182250Y94455D01*
X182120Y94420D01*
X182010Y94375D01*
X181920Y94320D01*
X181850Y94255D01*
X181800Y94180D01*
X181770Y94095D01*
X181760Y94000D01*
Y96000D01*
X181770Y95905D01*
D02*
G37*
G36*
X178252Y94000D02*
X178242Y94095D01*
X178212Y94180D01*
X178161Y94255D01*
X178090Y94320D01*
X177999Y94375D01*
X177888Y94420D01*
X177757Y94455D01*
X177605Y94480D01*
X177433Y94495D01*
X177240Y94500D01*
Y95500D01*
X177433Y95505D01*
X177605Y95520D01*
X177757Y95545D01*
X177888Y95580D01*
X177999Y95625D01*
X178090Y95680D01*
X178161Y95745D01*
X178212Y95820D01*
X178242Y95905D01*
X178252Y96000D01*
Y94000D01*
D02*
G37*
G36*
X128442Y94451D02*
X128300Y93921D01*
Y93472D01*
X110102D01*
X109813Y93972D01*
X109982Y94265D01*
X110166Y94951D01*
X128101D01*
X128442Y94451D01*
D02*
G37*
G36*
X195085Y94965D02*
X194990Y94822D01*
X194963Y94639D01*
X195004Y94415D01*
X195112Y94152D01*
X195289Y93850D01*
X195533Y93507D01*
X195846Y93125D01*
X196674Y92240D01*
X194625Y91460D01*
X194215Y91864D01*
X192844Y93051D01*
X192569Y93242D01*
X192321Y93391D01*
X192100Y93497D01*
X191907Y93561D01*
X191741Y93582D01*
X195248Y95068D01*
X195085Y94965D01*
D02*
G37*
G36*
X157295Y92131D02*
X157321Y91861D01*
X157344Y91752D01*
X157374Y91659D01*
X157411Y91583D01*
X157454Y91524D01*
X157503Y91482D01*
X157559Y91457D01*
X157622Y91448D01*
X155960D01*
X156023Y91457D01*
X156080Y91482D01*
X156129Y91524D01*
X156172Y91583D01*
X156209Y91659D01*
X156238Y91752D01*
X156262Y91861D01*
X156278Y91988D01*
X156288Y92131D01*
X156291Y92291D01*
X157291D01*
X157295Y92131D01*
D02*
G37*
G36*
X152295D02*
X152321Y91861D01*
X152344Y91752D01*
X152374Y91659D01*
X152410Y91583D01*
X152453Y91524D01*
X152503Y91482D01*
X152559Y91457D01*
X152622Y91448D01*
X150960D01*
X151023Y91457D01*
X151080Y91482D01*
X151129Y91524D01*
X151172Y91583D01*
X151209Y91659D01*
X151238Y91752D01*
X151262Y91861D01*
X151278Y91988D01*
X151288Y92131D01*
X151291Y92291D01*
X152291D01*
X152295Y92131D01*
D02*
G37*
G36*
X137678Y92510D02*
X137605Y92453D01*
X137539Y92389D01*
X137481Y92318D01*
X137431Y92240D01*
X137388Y92154D01*
X137353Y92061D01*
X137331Y91978D01*
X137336Y91944D01*
X137371Y91813D01*
X137416Y91701D01*
X137471Y91610D01*
X137536Y91540D01*
X137611Y91489D01*
X137696Y91459D01*
X137791Y91448D01*
X135791D01*
X135886Y91459D01*
X135971Y91489D01*
X136046Y91540D01*
X136111Y91610D01*
X136166Y91701D01*
X136211Y91813D01*
X136246Y91944D01*
X136271Y92096D01*
X136272Y92107D01*
X136267Y92160D01*
X136249Y92266D01*
X136224Y92367D01*
X136195Y92464D01*
X136160Y92556D01*
X136120Y92643D01*
X136075Y92725D01*
X136024Y92802D01*
X137678Y92510D01*
D02*
G37*
G36*
X132479Y92795D02*
X132440Y92712D01*
X132405Y92624D01*
X132375Y92532D01*
X132349Y92435D01*
X132328Y92333D01*
X132306Y92158D01*
X132311Y92096D01*
X132336Y91944D01*
X132371Y91813D01*
X132416Y91701D01*
X132471Y91610D01*
X132536Y91540D01*
X132611Y91489D01*
X132696Y91459D01*
X132791Y91448D01*
X130791D01*
X130886Y91459D01*
X130971Y91489D01*
X131046Y91540D01*
X131111Y91610D01*
X131166Y91701D01*
X131211Y91813D01*
X131246Y91944D01*
X131249Y91963D01*
X131228Y92041D01*
X131192Y92131D01*
X131148Y92214D01*
X131096Y92289D01*
X131036Y92355D01*
X130969Y92414D01*
X130893Y92465D01*
X132523Y92873D01*
X132479Y92795D01*
D02*
G37*
G36*
X205244Y93370D02*
X205607Y93063D01*
X205768Y92950D01*
X205917Y92864D01*
X206051Y92806D01*
X206173Y92775D01*
X206280Y92771D01*
X206375Y92795D01*
X206456Y92846D01*
X206087Y92525D01*
X206090Y92522D01*
X206180Y92448D01*
X206270Y92383D01*
X206360Y92328D01*
X206451Y92283D01*
X206543Y92247D01*
X206636Y92220D01*
X206729Y92203D01*
X206823Y92195D01*
X206917Y92197D01*
X205801Y90941D01*
X205793Y91036D01*
X205776Y91129D01*
X205750Y91222D01*
X205717Y91314D01*
X205675Y91406D01*
X205625Y91496D01*
X205566Y91586D01*
X205499Y91676D01*
X205424Y91764D01*
X205341Y91852D01*
X205434Y91958D01*
X204956Y91542D01*
X205015Y91615D01*
X205046Y91702D01*
X205047Y91805D01*
X205019Y91924D01*
X204962Y92057D01*
X204875Y92207D01*
X204759Y92371D01*
X204614Y92551D01*
X204236Y92957D01*
X205042Y93565D01*
X205244Y93370D01*
D02*
G37*
G36*
X197555Y89956D02*
X197545Y89965D01*
X197513Y89972D01*
X197460Y89979D01*
X197292Y89989D01*
X196500Y90000D01*
Y92000D01*
X197555Y92044D01*
Y89956D01*
D02*
G37*
G36*
X165988Y88300D02*
X165893Y88297D01*
X165799Y88284D01*
X165706Y88263D01*
X165613Y88233D01*
X165521Y88194D01*
X165430Y88146D01*
X165340Y88089D01*
X165250Y88024D01*
X165161Y87949D01*
X165073Y87866D01*
X164366Y88573D01*
X164449Y88661D01*
X164524Y88750D01*
X164589Y88840D01*
X164646Y88930D01*
X164694Y89021D01*
X164733Y89113D01*
X164763Y89206D01*
X164784Y89299D01*
X164797Y89393D01*
X164800Y89488D01*
X165988Y88300D01*
D02*
G37*
G36*
X181770Y88756D02*
X181800Y88671D01*
X181850Y88596D01*
X181920Y88531D01*
X182010Y88476D01*
X182120Y88431D01*
X182250Y88396D01*
X182400Y88371D01*
X182570Y88356D01*
X182760Y88351D01*
Y87351D01*
X182570Y87346D01*
X182400Y87331D01*
X182250Y87306D01*
X182120Y87271D01*
X182010Y87226D01*
X181920Y87171D01*
X181850Y87106D01*
X181800Y87031D01*
X181770Y86946D01*
X181760Y86851D01*
Y88851D01*
X181770Y88756D01*
D02*
G37*
G36*
X178253Y86851D02*
X178243Y86946D01*
X178212Y87031D01*
X178162Y87106D01*
X178091Y87171D01*
X178000Y87226D01*
X177889Y87271D01*
X177757Y87306D01*
X177605Y87331D01*
X177433Y87346D01*
X177241Y87351D01*
Y88351D01*
X177433Y88356D01*
X177605Y88371D01*
X177757Y88396D01*
X177889Y88431D01*
X178000Y88476D01*
X178091Y88531D01*
X178162Y88596D01*
X178212Y88671D01*
X178243Y88756D01*
X178253Y88851D01*
Y86851D01*
D02*
G37*
G36*
X168674Y81467D02*
X168607Y81396D01*
X168546Y81325D01*
X168493Y81254D01*
X168446Y81183D01*
X168407Y81112D01*
X168375Y81042D01*
X168350Y80971D01*
X168333Y80901D01*
X168322Y80830D01*
X168318Y80760D01*
X165980D01*
X166100Y80771D01*
X166229Y80803D01*
X166368Y80856D01*
X166516Y80930D01*
X166675Y81025D01*
X166843Y81142D01*
X167021Y81280D01*
X167406Y81619D01*
X167614Y81821D01*
X168674Y81467D01*
D02*
G37*
G36*
X73775Y81573D02*
X73718Y81498D01*
X73667Y81417D01*
X73622Y81330D01*
X73585Y81238D01*
X73554Y81140D01*
X73531Y81036D01*
X73514Y80926D01*
X73503Y80810D01*
X73500Y80689D01*
X72500D01*
X72497Y80810D01*
X72486Y80926D01*
X72469Y81036D01*
X72446Y81140D01*
X72415Y81238D01*
X72378Y81330D01*
X72333Y81417D01*
X72282Y81498D01*
X72225Y81573D01*
X72160Y81643D01*
X73840D01*
X73775Y81573D01*
D02*
G37*
G36*
X136759Y81200D02*
X135618Y80250D01*
X134980Y80500D01*
X135408Y81500D01*
X136759Y81200D01*
D02*
G37*
G36*
X208206Y79870D02*
X204591D01*
X204302Y80302D01*
X197937Y86668D01*
X198128Y87130D01*
X203468D01*
Y88041D01*
X203931Y88130D01*
Y88130D01*
X208206D01*
Y79870D01*
D02*
G37*
G36*
X158843Y79631D02*
X158913Y79667D01*
X158994Y79718D01*
X159069Y79775D01*
X159139Y79840D01*
Y78160D01*
X159069Y78225D01*
X158994Y78282D01*
X158913Y78333D01*
X158843Y78369D01*
Y78000D01*
X158833Y78095D01*
X158802Y78180D01*
X158752Y78255D01*
X158681Y78320D01*
X158590Y78375D01*
X158479Y78420D01*
X158347Y78455D01*
X158195Y78480D01*
X158023Y78495D01*
X157831Y78500D01*
Y79500D01*
X158023Y79505D01*
X158195Y79520D01*
X158347Y79545D01*
X158479Y79580D01*
X158590Y79625D01*
X158681Y79680D01*
X158752Y79745D01*
X158802Y79820D01*
X158833Y79905D01*
X158843Y80000D01*
Y79631D01*
D02*
G37*
G36*
X69800Y82921D02*
Y82079D01*
X70018Y81265D01*
X70439Y80535D01*
X70451Y80524D01*
Y77154D01*
X69951Y77105D01*
X69797Y77880D01*
X69546Y78256D01*
X67282Y75992D01*
X69546Y73728D01*
X69797Y74104D01*
X69951Y74880D01*
X70451Y74830D01*
Y70000D01*
X70645Y69024D01*
X71198Y68198D01*
X72425Y66970D01*
Y65331D01*
Y60341D01*
X71898Y60237D01*
X71071Y59684D01*
X68011Y56624D01*
X67549Y56815D01*
Y72329D01*
X67586Y72361D01*
X67722Y72619D01*
X67725Y72623D01*
X68463Y72770D01*
X68839Y73021D01*
X66221Y75639D01*
X66575Y75992D01*
X66221Y76346D01*
X68839Y78963D01*
X68463Y79214D01*
X67520Y79402D01*
X62480D01*
X61537Y79214D01*
X61161Y78963D01*
X63779Y76346D01*
X63425Y75992D01*
X63779Y75639D01*
X61161Y73021D01*
X61537Y72770D01*
X62275Y72623D01*
X62278Y72619D01*
X62414Y72361D01*
X62451Y72329D01*
Y53671D01*
X62414Y53639D01*
X62278Y53381D01*
X62275Y53377D01*
X61537Y53230D01*
X61161Y52979D01*
X63779Y50361D01*
X63072Y49654D01*
X60454Y52272D01*
X60203Y51896D01*
X60016Y50953D01*
Y49063D01*
X60092Y48681D01*
X59775Y48294D01*
X58794D01*
Y83206D01*
X69582D01*
X69800Y82921D01*
D02*
G37*
G36*
X98819Y75349D02*
Y68333D01*
X93450D01*
X93259Y68795D01*
X94170Y69706D01*
X95250Y71323D01*
X95995Y73120D01*
X96374Y75028D01*
Y75242D01*
X96874Y75556D01*
X97500Y75474D01*
X98283Y75577D01*
X98403Y75627D01*
X98819Y75349D01*
D02*
G37*
G36*
X168054Y77231D02*
X167969Y77201D01*
X167894Y77151D01*
X167829Y77081D01*
X167774Y76991D01*
X167729Y76881D01*
X167694Y76751D01*
X167669Y76601D01*
X167654Y76431D01*
X167649Y76250D01*
X167654Y76068D01*
X167669Y75896D01*
X167694Y75744D01*
X167729Y75612D01*
X167774Y75501D01*
X167829Y75410D01*
X167894Y75339D01*
X167969Y75289D01*
X168054Y75258D01*
X168149Y75248D01*
X166149D01*
X166244Y75258D01*
X166329Y75289D01*
X166404Y75339D01*
X166469Y75410D01*
X166524Y75501D01*
X166569Y75612D01*
X166604Y75744D01*
X166629Y75896D01*
X166644Y76068D01*
X166649Y76250D01*
X166644Y76431D01*
X166629Y76601D01*
X166604Y76751D01*
X166569Y76881D01*
X166524Y76991D01*
X166469Y77081D01*
X166404Y77151D01*
X166329Y77201D01*
X166244Y77231D01*
X166149Y77241D01*
X168149D01*
X168054Y77231D01*
D02*
G37*
G36*
X133002Y76191D02*
X133083Y75020D01*
X133108Y74939D01*
X133137Y74890D01*
X133169Y74874D01*
X130831D01*
X130863Y74890D01*
X130892Y74939D01*
X130917Y75020D01*
X130939Y75134D01*
X130958Y75280D01*
X130985Y75671D01*
X131000Y76500D01*
X133000D01*
X133002Y76191D01*
D02*
G37*
G36*
X128002D02*
X128083Y75020D01*
X128108Y74939D01*
X128137Y74890D01*
X128169Y74874D01*
X125831D01*
X125863Y74890D01*
X125892Y74939D01*
X125917Y75020D01*
X125939Y75134D01*
X125958Y75280D01*
X125985Y75671D01*
X126000Y76500D01*
X128000D01*
X128002Y76191D01*
D02*
G37*
G36*
X123002D02*
X123083Y75020D01*
X123108Y74939D01*
X123137Y74890D01*
X123169Y74874D01*
X120831D01*
X120863Y74890D01*
X120892Y74939D01*
X120917Y75020D01*
X120939Y75134D01*
X120958Y75280D01*
X120985Y75671D01*
X121000Y76500D01*
X123000D01*
X123002Y76191D01*
D02*
G37*
G36*
X196855Y74272D02*
X196848Y74401D01*
X196827Y74502D01*
X196791Y74574D01*
X196740Y74617D01*
X196676Y74631D01*
X196597Y74617D01*
X196503Y74574D01*
X196395Y74502D01*
X196273Y74401D01*
X196136Y74272D01*
X195783Y75332D01*
X195987Y75543D01*
X196330Y75942D01*
X196469Y76130D01*
X196587Y76311D01*
X196684Y76484D01*
X196759Y76649D01*
X196813Y76807D01*
X196845Y76957D01*
X196855Y77100D01*
Y74272D01*
D02*
G37*
G36*
X137775Y74073D02*
X137718Y73998D01*
X137667Y73917D01*
X137622Y73830D01*
X137585Y73738D01*
X137554Y73640D01*
X137531Y73536D01*
X137514Y73426D01*
X137503Y73310D01*
X137500Y73189D01*
X136500D01*
X136497Y73310D01*
X136486Y73426D01*
X136469Y73536D01*
X136446Y73640D01*
X136415Y73738D01*
X136378Y73830D01*
X136333Y73917D01*
X136282Y73998D01*
X136225Y74073D01*
X136160Y74143D01*
X137840D01*
X137775Y74073D01*
D02*
G37*
G36*
X192800Y80595D02*
Y80579D01*
X193018Y79765D01*
X193439Y79035D01*
X194035Y78439D01*
X194552Y78141D01*
X194784Y77997D01*
X194882Y77469D01*
X194875Y77442D01*
X194871Y77431D01*
X194851Y77384D01*
X194851Y77383D01*
X194841Y77367D01*
X194795Y77296D01*
X194736Y77216D01*
X194534Y76981D01*
X190509Y72956D01*
X190033Y73114D01*
X190002Y73156D01*
X190374Y75028D01*
Y76973D01*
X189995Y78880D01*
X189250Y80677D01*
X188170Y82294D01*
X186794Y83670D01*
X185177Y84750D01*
X185029Y84812D01*
X185127Y85302D01*
X188093D01*
X192800Y80595D01*
D02*
G37*
G36*
X158843Y74129D02*
X158917Y74167D01*
X158998Y74218D01*
X159073Y74275D01*
X159143Y74340D01*
Y72660D01*
X159073Y72725D01*
X158998Y72782D01*
X158917Y72833D01*
X158843Y72871D01*
Y72500D01*
X158833Y72595D01*
X158802Y72680D01*
X158752Y72755D01*
X158681Y72820D01*
X158590Y72875D01*
X158479Y72920D01*
X158347Y72955D01*
X158195Y72980D01*
X158023Y72995D01*
X157831Y73000D01*
Y74000D01*
X158023Y74005D01*
X158195Y74020D01*
X158347Y74045D01*
X158479Y74080D01*
X158590Y74125D01*
X158681Y74180D01*
X158752Y74245D01*
X158802Y74320D01*
X158833Y74405D01*
X158843Y74500D01*
Y74129D01*
D02*
G37*
G36*
X65905Y73632D02*
X65820Y73601D01*
X65745Y73551D01*
X65680Y73480D01*
X65625Y73389D01*
X65580Y73277D01*
X65545Y73146D01*
X65520Y72994D01*
X65505Y72822D01*
X65500Y72630D01*
X64500D01*
X64495Y72822D01*
X64480Y72994D01*
X64455Y73146D01*
X64420Y73277D01*
X64375Y73389D01*
X64320Y73480D01*
X64255Y73551D01*
X64180Y73601D01*
X64095Y73632D01*
X64000Y73642D01*
X66000D01*
X65905Y73632D01*
D02*
G37*
G36*
X137905Y70175D02*
X137820Y70145D01*
X137745Y70094D01*
X137680Y70024D01*
X137625Y69932D01*
X137580Y69821D01*
X137545Y69690D01*
X137520Y69538D01*
X137505Y69366D01*
X137500Y69173D01*
X136500D01*
X136495Y69366D01*
X136480Y69538D01*
X136455Y69690D01*
X136420Y69821D01*
X136375Y69932D01*
X136320Y70024D01*
X136255Y70094D01*
X136180Y70145D01*
X136095Y70175D01*
X136000Y70185D01*
X138000D01*
X137905Y70175D01*
D02*
G37*
G36*
X118089Y70158D02*
X118018Y70113D01*
X117955Y70038D01*
X117901Y69933D01*
X117855Y69798D01*
X117817Y69633D01*
X117788Y69438D01*
X117767Y69213D01*
X117750Y68673D01*
X116250D01*
X116246Y68958D01*
X116212Y69438D01*
X116183Y69633D01*
X116145Y69798D01*
X116099Y69933D01*
X116045Y70038D01*
X115982Y70113D01*
X115910Y70158D01*
X115831Y70173D01*
X118169D01*
X118089Y70158D01*
D02*
G37*
G36*
X113090D02*
X113018Y70113D01*
X112955Y70038D01*
X112901Y69933D01*
X112855Y69798D01*
X112817Y69633D01*
X112788Y69438D01*
X112767Y69213D01*
X112750Y68673D01*
X111250D01*
X111246Y68958D01*
X111212Y69438D01*
X111183Y69633D01*
X111145Y69798D01*
X111099Y69933D01*
X111045Y70038D01*
X110982Y70113D01*
X110910Y70158D01*
X110831Y70173D01*
X113169D01*
X113090Y70158D01*
D02*
G37*
G36*
X123137Y70157D02*
X123108Y70107D01*
X123083Y70023D01*
X123061Y69906D01*
X123042Y69755D01*
X123015Y69353D01*
X123000Y68500D01*
X121000D01*
X120998Y68818D01*
X120917Y70023D01*
X120892Y70107D01*
X120863Y70157D01*
X120831Y70173D01*
X123169D01*
X123137Y70157D01*
D02*
G37*
G36*
X152451Y68818D02*
X152466Y68598D01*
X152479Y68508D01*
X152496Y68432D01*
X152517Y68370D01*
X152542Y68322D01*
X152570Y68288D01*
X152602Y68267D01*
X152638Y68260D01*
X151260D01*
X151296Y68267D01*
X151328Y68288D01*
X151356Y68322D01*
X151381Y68370D01*
X151402Y68432D01*
X151419Y68508D01*
X151432Y68598D01*
X151442Y68701D01*
X151449Y68949D01*
X152449D01*
X152451Y68818D01*
D02*
G37*
G36*
X137503Y67690D02*
X137514Y67574D01*
X137531Y67464D01*
X137554Y67360D01*
X137585Y67262D01*
X137622Y67170D01*
X137667Y67083D01*
X137718Y67002D01*
X137775Y66926D01*
X137840Y66857D01*
X136160D01*
X136225Y66926D01*
X136282Y67002D01*
X136333Y67083D01*
X136378Y67170D01*
X136415Y67262D01*
X136446Y67360D01*
X136469Y67464D01*
X136486Y67574D01*
X136497Y67690D01*
X136500Y67811D01*
X137500D01*
X137503Y67690D01*
D02*
G37*
G36*
X166117Y67653D02*
X166149Y67503D01*
X166203Y67345D01*
X166278Y67180D01*
X166374Y67006D01*
X166492Y66826D01*
X166632Y66638D01*
X166975Y66239D01*
X167179Y66028D01*
X166825Y64968D01*
X166689Y65097D01*
X166567Y65198D01*
X166459Y65270D01*
X166365Y65313D01*
X166286Y65327D01*
X166221Y65313D01*
X166171Y65270D01*
X166135Y65198D01*
X166113Y65097D01*
X166106Y64968D01*
Y67796D01*
X166117Y67653D01*
D02*
G37*
G36*
X175512Y65001D02*
X175459Y64936D01*
X175411Y64869D01*
X175370Y64801D01*
X175335Y64731D01*
X175307Y64659D01*
X175285Y64586D01*
X175269Y64512D01*
X175260Y64436D01*
X175257Y64358D01*
X172744Y64346D01*
X172884Y64354D01*
X173024Y64376D01*
X173164Y64412D01*
X173305Y64463D01*
X173447Y64527D01*
X173588Y64607D01*
X173730Y64700D01*
X173872Y64807D01*
X174015Y64929D01*
X174158Y65065D01*
X175572D01*
X175512Y65001D01*
D02*
G37*
G36*
X137775Y65074D02*
X137718Y64998D01*
X137667Y64917D01*
X137622Y64830D01*
X137585Y64738D01*
X137554Y64640D01*
X137531Y64536D01*
X137514Y64426D01*
X137503Y64310D01*
X137500Y64189D01*
X136500D01*
X136497Y64310D01*
X136486Y64426D01*
X136469Y64536D01*
X136446Y64640D01*
X136415Y64738D01*
X136378Y64830D01*
X136333Y64917D01*
X136282Y64998D01*
X136225Y65074D01*
X136160Y65143D01*
X137840D01*
X137775Y65074D01*
D02*
G37*
G36*
X120488Y63800D02*
X120393Y63797D01*
X120299Y63784D01*
X120206Y63763D01*
X120113Y63733D01*
X120021Y63694D01*
X119930Y63646D01*
X119840Y63589D01*
X119750Y63524D01*
X119661Y63449D01*
X119573Y63366D01*
X118866Y64073D01*
X118949Y64161D01*
X119024Y64250D01*
X119089Y64340D01*
X119146Y64430D01*
X119194Y64521D01*
X119233Y64613D01*
X119263Y64706D01*
X119284Y64799D01*
X119297Y64893D01*
X119300Y64988D01*
X120488Y63800D01*
D02*
G37*
G36*
X145705Y64742D02*
X145620Y64712D01*
X145545Y64661D01*
X145480Y64590D01*
X145425Y64499D01*
X145380Y64388D01*
X145345Y64257D01*
X145320Y64105D01*
X145305Y63933D01*
X145300Y63745D01*
X145305Y63560D01*
X145320Y63390D01*
X145345Y63240D01*
X145380Y63110D01*
X145425Y63000D01*
X145480Y62910D01*
X145545Y62840D01*
X145620Y62790D01*
X145705Y62760D01*
X145800Y62750D01*
X143800D01*
X143895Y62760D01*
X143980Y62790D01*
X144055Y62840D01*
X144120Y62910D01*
X144175Y63000D01*
X144220Y63110D01*
X144255Y63240D01*
X144280Y63390D01*
X144295Y63560D01*
X144300Y63745D01*
X144295Y63933D01*
X144280Y64105D01*
X144255Y64257D01*
X144220Y64388D01*
X144175Y64499D01*
X144120Y64590D01*
X144055Y64661D01*
X143980Y64712D01*
X143895Y64742D01*
X143800Y64752D01*
X145800D01*
X145705Y64742D01*
D02*
G37*
G36*
X158304Y63760D02*
X158315Y63645D01*
X158335Y63537D01*
X158362Y63437D01*
X158396Y63343D01*
X158439Y63257D01*
X158489Y63178D01*
X158547Y63107D01*
X158612Y63042D01*
X158685Y62985D01*
X158531Y62777D01*
X158545Y62761D01*
X158620Y62712D01*
X158705Y62682D01*
X158800Y62672D01*
X158452D01*
X157753Y61730D01*
X157054Y62672D01*
X156800D01*
X156895Y62682D01*
X156980Y62712D01*
X157055Y62761D01*
X157090Y62799D01*
X157126Y62864D01*
X157167Y62951D01*
X157202Y63043D01*
X157232Y63139D01*
X157257Y63240D01*
X157276Y63347D01*
X157289Y63458D01*
X157300Y63695D01*
X158300Y63882D01*
X158304Y63760D01*
D02*
G37*
G36*
X182667Y62732D02*
X182696Y62647D01*
X182747Y62572D01*
X182817Y62507D01*
X182906Y62452D01*
X183017Y62407D01*
X183147Y62372D01*
X183297Y62347D01*
X183466Y62332D01*
X183657Y62327D01*
Y61327D01*
X183466Y61322D01*
X183297Y61307D01*
X183147Y61282D01*
X183017Y61247D01*
X182906Y61202D01*
X182817Y61147D01*
X182747Y61082D01*
X182696Y61007D01*
X182667Y60922D01*
X182657Y60827D01*
Y62827D01*
X182667Y62732D01*
D02*
G37*
G36*
X134292Y67661D02*
X134276Y67637D01*
X134269Y67600D01*
X134249Y67568D01*
X134191Y67211D01*
X134121Y66857D01*
X134128Y66820D01*
X134122Y66782D01*
X134206Y66431D01*
X134276Y66077D01*
X134297Y66045D01*
X134306Y66008D01*
X134312Y66000D01*
X134306Y65992D01*
X134297Y65955D01*
X134276Y65923D01*
X134206Y65569D01*
X134122Y65218D01*
X134128Y65180D01*
X134121Y65143D01*
X134191Y64789D01*
X134249Y64432D01*
X134269Y64400D01*
X134276Y64363D01*
X134451Y64101D01*
Y60982D01*
X133989Y60790D01*
X127080Y67699D01*
X127271Y68161D01*
X134025D01*
X134292Y67661D01*
D02*
G37*
G36*
X158395Y60867D02*
X158377Y60855D01*
X158361Y60834D01*
X158346Y60804D01*
X158334Y60764D01*
X158324Y60714D01*
X158301Y60419D01*
X158300Y60321D01*
X157300D01*
X157296Y60683D01*
X157284Y60924D01*
X157278Y60978D01*
X157271Y61019D01*
X157263Y61046D01*
X157255Y61059D01*
X157753Y61730D01*
X158395Y60867D01*
D02*
G37*
G36*
X145300Y61182D02*
X145302Y61010D01*
X145336Y60555D01*
X145357Y60424D01*
X145412Y60192D01*
X145446Y60091D01*
X145484Y60000D01*
X145528Y59920D01*
X143901Y60340D01*
X143977Y60390D01*
X144045Y60448D01*
X144104Y60514D01*
X144156Y60588D01*
X144200Y60671D01*
X144236Y60761D01*
X144264Y60859D01*
X144284Y60966D01*
X144296Y61081D01*
X144300Y61203D01*
X145300Y61182D01*
D02*
G37*
G36*
X175257Y60642D02*
X175208Y60632D01*
X175164Y60602D01*
X175126Y60552D01*
X175092Y60482D01*
X175064Y60392D01*
X175041Y60282D01*
X175023Y60152D01*
X175003Y59832D01*
X175000Y59642D01*
X174000D01*
X173995Y59834D01*
X173980Y60005D01*
X173955Y60157D01*
X173920Y60288D01*
X173875Y60399D01*
X173820Y60490D01*
X173755Y60561D01*
X173680Y60612D01*
X173595Y60643D01*
X173500Y60654D01*
X175257Y60642D01*
D02*
G37*
G36*
X144162Y70734D02*
X143970Y70272D01*
X141619D01*
Y64762D01*
X141127D01*
Y58131D01*
X140665Y57940D01*
X139549Y59056D01*
Y64101D01*
X139724Y64363D01*
X139731Y64400D01*
X139751Y64432D01*
X139809Y64789D01*
X139879Y65143D01*
X139872Y65180D01*
X139878Y65218D01*
X139794Y65569D01*
X139724Y65923D01*
X139703Y65955D01*
X139694Y65992D01*
X139688Y66000D01*
X139694Y66008D01*
X139703Y66045D01*
X139724Y66077D01*
X139794Y66431D01*
X139878Y66782D01*
X139872Y66820D01*
X139879Y66857D01*
X139809Y67211D01*
X139751Y67568D01*
X139731Y67600D01*
X139724Y67637D01*
X139549Y67899D01*
Y68873D01*
X139587Y68904D01*
X139722Y69163D01*
X139884Y69405D01*
X139905Y69512D01*
X139956Y69609D01*
X139982Y69899D01*
X140039Y70185D01*
X140018Y70293D01*
X140028Y70401D01*
X139941Y70680D01*
X139884Y70966D01*
X139823Y71057D01*
X139791Y71161D01*
X139604Y71385D01*
X139549Y71467D01*
Y73101D01*
X139724Y73363D01*
X139731Y73400D01*
X139751Y73432D01*
X139809Y73789D01*
X139879Y74143D01*
X139872Y74180D01*
X139878Y74218D01*
X139849Y74339D01*
X140303Y74592D01*
X144162Y70734D01*
D02*
G37*
G36*
X153714Y58076D02*
X153613Y58054D01*
X153541Y58018D01*
X153498Y57968D01*
X153484Y57903D01*
X153498Y57824D01*
X153541Y57731D01*
X153613Y57623D01*
X153714Y57501D01*
X153843Y57364D01*
X152782Y57010D01*
X152572Y57214D01*
X152173Y57557D01*
X151985Y57697D01*
X151804Y57815D01*
X151631Y57911D01*
X151466Y57987D01*
X151308Y58040D01*
X151157Y58072D01*
X151015Y58083D01*
X153843D01*
X153714Y58076D01*
D02*
G37*
G36*
X118973Y57300D02*
X118879Y57294D01*
X118785Y57279D01*
X118692Y57256D01*
X118599Y57224D01*
X118507Y57184D01*
X118416Y57135D01*
X118326Y57077D01*
X118237Y57011D01*
X118148Y56936D01*
X118060Y56853D01*
X117330Y57537D01*
X117413Y57625D01*
X117488Y57714D01*
X117553Y57804D01*
X117608Y57895D01*
X117655Y57986D01*
X117693Y58078D01*
X117721Y58170D01*
X117740Y58264D01*
X117750Y58358D01*
X117751Y58453D01*
X118973Y57300D01*
D02*
G37*
G36*
X128988Y54300D02*
X128893Y54297D01*
X128799Y54284D01*
X128706Y54263D01*
X128613Y54233D01*
X128521Y54194D01*
X128430Y54146D01*
X128340Y54089D01*
X128250Y54024D01*
X128161Y53949D01*
X128073Y53866D01*
X127366Y54573D01*
X127449Y54661D01*
X127524Y54750D01*
X127589Y54840D01*
X127646Y54930D01*
X127694Y55021D01*
X127733Y55113D01*
X127763Y55206D01*
X127784Y55299D01*
X127797Y55393D01*
X127800Y55488D01*
X128988Y54300D01*
D02*
G37*
G36*
X149005Y53739D02*
X149020Y53569D01*
X149045Y53419D01*
X149080Y53289D01*
X149125Y53179D01*
X149180Y53089D01*
X149245Y53019D01*
X149320Y52969D01*
X149405Y52939D01*
X149500Y52929D01*
X147500D01*
X147595Y52939D01*
X147680Y52969D01*
X147755Y53019D01*
X147820Y53089D01*
X147875Y53179D01*
X147920Y53289D01*
X147955Y53419D01*
X147980Y53569D01*
X147995Y53739D01*
X148000Y53929D01*
X149000D01*
X149005Y53739D01*
D02*
G37*
G36*
X127502Y53372D02*
X127528Y53069D01*
X127543Y52995D01*
X127562Y52934D01*
X127585Y52887D01*
X127611Y52854D01*
X127640Y52833D01*
X127673Y52827D01*
X126327D01*
X126359Y52833D01*
X126389Y52854D01*
X126415Y52887D01*
X126438Y52934D01*
X126457Y52995D01*
X126472Y53069D01*
X126484Y53157D01*
X126498Y53372D01*
X126500Y53500D01*
X127500D01*
X127502Y53372D01*
D02*
G37*
G36*
X122505Y53637D02*
X122520Y53467D01*
X122545Y53317D01*
X122580Y53187D01*
X122625Y53077D01*
X122680Y52987D01*
X122745Y52917D01*
X122820Y52867D01*
X122905Y52837D01*
X123000Y52827D01*
X121000D01*
X121095Y52837D01*
X121180Y52867D01*
X121255Y52917D01*
X121320Y52987D01*
X121375Y53077D01*
X121420Y53187D01*
X121455Y53317D01*
X121480Y53467D01*
X121495Y53637D01*
X121500Y53827D01*
X122500D01*
X122505Y53637D01*
D02*
G37*
G36*
X141661Y54051D02*
X141750Y53976D01*
X141840Y53911D01*
X141930Y53854D01*
X142021Y53806D01*
X142113Y53767D01*
X142206Y53737D01*
X142299Y53716D01*
X142393Y53703D01*
X142488Y53700D01*
X141300Y52512D01*
X141297Y52607D01*
X141284Y52701D01*
X141263Y52794D01*
X141233Y52887D01*
X141194Y52979D01*
X141146Y53070D01*
X141089Y53160D01*
X141024Y53250D01*
X140949Y53339D01*
X140866Y53427D01*
X141573Y54134D01*
X141661Y54051D01*
D02*
G37*
G36*
X96664Y52433D02*
X96460Y52222D01*
X96141Y51847D01*
X96025Y51683D01*
X95938Y51534D01*
X95881Y51400D01*
X95853Y51282D01*
X95854Y51179D01*
X95885Y51091D01*
X95944Y51019D01*
X95574Y51340D01*
X95551Y51315D01*
X95476Y51226D01*
X95411Y51137D01*
X95354Y51046D01*
X95306Y50955D01*
X95267Y50863D01*
X95237Y50771D01*
X95216Y50677D01*
X95203Y50583D01*
X95200Y50488D01*
X94012Y51676D01*
X94107Y51680D01*
X94201Y51692D01*
X94294Y51713D01*
X94387Y51744D01*
X94479Y51783D01*
X94570Y51830D01*
X94660Y51887D01*
X94750Y51953D01*
X94811Y52004D01*
X94444Y52323D01*
X94525Y52271D01*
X94620Y52248D01*
X94727Y52251D01*
X94849Y52282D01*
X94983Y52341D01*
X95131Y52426D01*
X95293Y52539D01*
X95468Y52679D01*
X95858Y53042D01*
X96664Y52433D01*
D02*
G37*
G36*
X65505Y53178D02*
X65520Y53006D01*
X65545Y52854D01*
X65580Y52723D01*
X65625Y52611D01*
X65680Y52520D01*
X65745Y52449D01*
X65820Y52399D01*
X65905Y52368D01*
X66000Y52358D01*
X65948D01*
X66072Y52350D01*
X66200Y52360D01*
X66332Y52387D01*
X66467Y52433D01*
X66607Y52496D01*
X66750Y52577D01*
X66897Y52675D01*
X67049Y52791D01*
X67203Y52925D01*
X67362Y53077D01*
X68689Y52990D01*
X68526Y52820D01*
X68394Y52666D01*
X68292Y52529D01*
X68220Y52407D01*
X68178Y52302D01*
X68167Y52213D01*
X68186Y52139D01*
X68235Y52082D01*
X68314Y52040D01*
X68424Y52015D01*
X65948Y52358D01*
X64000D01*
X64095Y52368D01*
X64180Y52399D01*
X64255Y52449D01*
X64320Y52520D01*
X64375Y52611D01*
X64420Y52723D01*
X64455Y52854D01*
X64480Y53006D01*
X64495Y53178D01*
X64500Y53370D01*
X65500D01*
X65505Y53178D01*
D02*
G37*
G36*
X175275Y51073D02*
X175218Y50998D01*
X175167Y50917D01*
X175122Y50830D01*
X175085Y50738D01*
X175054Y50640D01*
X175031Y50536D01*
X175014Y50426D01*
X175003Y50310D01*
X175000Y50189D01*
X174000D01*
X173997Y50310D01*
X173986Y50426D01*
X173969Y50536D01*
X173946Y50640D01*
X173915Y50738D01*
X173878Y50830D01*
X173833Y50917D01*
X173782Y50998D01*
X173725Y51073D01*
X173660Y51143D01*
X175340D01*
X175275Y51073D01*
D02*
G37*
G36*
X96870Y56951D02*
X94266Y54347D01*
X94264Y54347D01*
X90031D01*
Y53436D01*
X89569Y53347D01*
Y53347D01*
X84339D01*
X86855Y50830D01*
X86148Y50123D01*
X83573Y52698D01*
X83374Y52594D01*
X83343Y52557D01*
X71807D01*
X71616Y53019D01*
X73930Y55333D01*
X85882D01*
X86857Y55527D01*
X87684Y56079D01*
X89056Y57451D01*
X96663D01*
X96870Y56951D01*
D02*
G37*
G36*
X68928Y50912D02*
X68959Y50827D01*
X69010Y50752D01*
X69081Y50687D01*
X69173Y50633D01*
X69285Y50588D01*
X69417Y50553D01*
X69570Y50528D01*
X69744Y50513D01*
X69937Y50508D01*
Y49508D01*
X69744Y49503D01*
X69570Y49488D01*
X69417Y49463D01*
X69285Y49428D01*
X69173Y49383D01*
X69081Y49328D01*
X69010Y49264D01*
X68959Y49189D01*
X68928Y49104D01*
X68918Y49009D01*
Y51006D01*
X68928Y50912D01*
D02*
G37*
G36*
X84655Y49008D02*
X84645Y49103D01*
X84615Y49188D01*
X84564Y49263D01*
X84494Y49328D01*
X84403Y49383D01*
X84291Y49428D01*
X84160Y49463D01*
X84008Y49488D01*
X83836Y49503D01*
X83644Y49508D01*
Y50508D01*
X83836Y50513D01*
X84008Y50528D01*
X84160Y50553D01*
X84291Y50588D01*
X84403Y50633D01*
X84494Y50688D01*
X84564Y50753D01*
X84615Y50828D01*
X84645Y50913D01*
X84655Y51008D01*
Y49008D01*
D02*
G37*
G36*
X163169Y52310D02*
X163230Y52140D01*
X163330Y51990D01*
X163471Y51860D01*
X163652Y51750D01*
X163874Y51660D01*
X164135Y51590D01*
X164437Y51540D01*
X164779Y51510D01*
X165161Y51500D01*
Y49500D01*
X164779Y49490D01*
X164437Y49460D01*
X164135Y49410D01*
X163874Y49340D01*
X163652Y49250D01*
X163471Y49140D01*
X163330Y49010D01*
X163230Y48860D01*
X163169Y48690D01*
X163149Y48500D01*
Y52500D01*
X163169Y52310D01*
D02*
G37*
G36*
X152698Y54198D02*
X153524Y53645D01*
X154500Y53451D01*
X157827D01*
Y48294D01*
X152173D01*
Y54069D01*
X152635Y54260D01*
X152698Y54198D01*
D02*
G37*
%LPC*%
G36*
X194900Y168293D02*
X192269Y165662D01*
X192757Y165288D01*
X193790Y164859D01*
X194900Y164713D01*
X196010Y164859D01*
X197043Y165288D01*
X197531Y165662D01*
X194900Y168293D01*
D02*
G37*
G36*
X60454Y78256D02*
X60203Y77880D01*
X60016Y76937D01*
Y75047D01*
X60203Y74104D01*
X60454Y73728D01*
X62718Y75992D01*
X60454Y78256D01*
D02*
G37*
%LPD*%
D13*
X175000Y48500D02*
X191000D01*
X174500Y49000D02*
Y52000D01*
Y49000D02*
X175000Y48500D01*
X191657Y49158D02*
Y51000D01*
X191000Y48500D02*
X191657Y49158D01*
X189149Y87851D02*
X196000Y81000D01*
X161791Y154465D02*
X166035D01*
X161791D02*
X162000Y154256D01*
Y151000D02*
Y154256D01*
X109000Y97500D02*
X155000D01*
Y97700D01*
X107000Y95500D02*
X109000Y97500D01*
X131791Y87535D02*
Y93209D01*
X131500Y93500D02*
X131791Y93209D01*
X136791Y93291D02*
X137000Y93500D01*
X116000Y55500D02*
X119000Y58500D01*
X118950D02*
X119000D01*
X107000Y60000D02*
X115500D01*
X120500Y65000D01*
X99024Y55500D02*
X116000D01*
X94000Y50476D02*
X99024Y55500D01*
X88000Y60000D02*
X107000D01*
X85882Y57882D02*
X88000Y60000D01*
X77082Y57882D02*
X85882D01*
X65000Y50008D02*
X86132D01*
X86847Y50723D01*
X173300Y62500D02*
X174500Y61300D01*
Y52000D02*
Y61300D01*
X154500Y56000D02*
X167500D01*
X168500Y57000D01*
X137000Y58000D02*
X142500Y52500D01*
X137000Y58000D02*
Y66000D01*
X109000Y81000D02*
X136791D01*
X137500D02*
X148500Y70000D01*
X136791Y81000D02*
X137500D01*
X136791Y80000D02*
Y81000D01*
X163000Y98500D02*
X165728D01*
X171000D01*
X136791Y87535D02*
Y93291D01*
X137000Y72524D02*
Y75000D01*
X180000Y87851D02*
X189149D01*
X188500Y101900D02*
X193500D01*
X186100Y99500D02*
X188500Y101900D01*
X176000Y99500D02*
X186100D01*
X171000Y98500D02*
X187500Y115000D01*
X154500Y95000D02*
X180000D01*
X186000D01*
X202500Y78500D01*
Y73000D02*
Y78500D01*
X164035Y87535D02*
X166000Y89500D01*
X161791Y87535D02*
X164035D01*
X166035Y154465D02*
X173000Y147500D01*
Y105000D02*
Y147500D01*
X159996Y79000D02*
X160000D01*
X137000Y66000D02*
Y72524D01*
X106791Y83209D02*
Y87535D01*
Y83209D02*
X109000Y81000D01*
X141791Y83209D02*
X151500Y73500D01*
X160000D01*
X122000Y54000D02*
X126500Y58500D01*
X157800Y60321D02*
Y66501D01*
X122000Y50476D02*
Y54000D01*
X127000Y53500D02*
X129000Y55500D01*
X127000Y50476D02*
Y53500D01*
X148500Y50579D02*
Y70000D01*
X179700Y63000D02*
X180279Y63579D01*
X179700Y62500D02*
X180373Y61827D01*
X180700Y62500D02*
X181373Y61827D01*
X188803D01*
X173300Y62500D02*
Y63500D01*
X175800Y66000D01*
X187157D02*
X191657Y70500D01*
X175800Y66000D02*
X187157D01*
X165999Y66501D02*
X168500Y64000D01*
X164949Y66501D02*
X165999D01*
X168500Y57000D02*
Y64000D01*
X152240Y58260D02*
Y60421D01*
Y58260D02*
X154500Y56000D01*
X161000Y64583D02*
X165240Y60343D01*
X161000Y64583D02*
Y68996D01*
X159996Y70000D02*
X161000Y68996D01*
X153000Y70000D02*
X159996D01*
X151949Y68949D02*
X153000Y70000D01*
X151949Y66501D02*
Y68949D01*
X144800Y60400D02*
Y66500D01*
X151000Y79000D02*
X159996D01*
X167149Y73501D02*
Y79001D01*
Y80649D01*
X141791Y83209D02*
Y87535D01*
X146791Y83209D02*
Y87535D01*
Y83209D02*
X151000Y79000D01*
X178500Y54000D02*
X178547Y53953D01*
X188803D01*
X179700Y57890D02*
X181668Y55921D01*
X202000Y95900D02*
Y112500D01*
X199500Y115000D02*
X202000Y112500D01*
X198700Y115000D02*
X199500D01*
X202000Y95900D02*
X206900Y91000D01*
X187500Y115000D02*
X193500D01*
X73000Y70000D02*
Y82500D01*
Y70000D02*
X74882Y68118D01*
X77082D01*
X174351Y87851D02*
X180000D01*
X167149Y80649D02*
X174351Y87851D01*
X181668Y55921D02*
X188803D01*
X65000Y50008D02*
Y75992D01*
Y50008D02*
X72874Y57882D01*
X77082D01*
X193500Y101900D02*
Y107600D01*
Y115000D02*
X198700D01*
X193500Y101900D02*
X198700D01*
X199531Y71000D02*
X201500Y69032D01*
Y66748D02*
Y69032D01*
X191657Y70500D02*
X197158Y76000D01*
X198636D01*
X207000Y64500D02*
Y68500D01*
X202500Y73000D02*
X207000Y68500D01*
X205851Y76349D02*
X209000Y73200D01*
Y61500D02*
Y73200D01*
X191657Y66748D02*
Y70500D01*
X171500Y93000D02*
X173500Y91000D01*
X196579Y58874D02*
X199531Y61827D01*
X204354D01*
X196579Y58874D02*
Y59716D01*
X191657Y64638D02*
X196579Y59716D01*
X191657Y64638D02*
Y66748D01*
X157500Y93000D02*
X171500D01*
X156791Y92291D02*
X157500Y93000D01*
X156791Y87535D02*
Y92291D01*
X151791D02*
X154500Y95000D01*
X151791Y87535D02*
Y92291D01*
X206295Y63795D02*
X207000Y64500D01*
X204354Y63795D02*
X206295D01*
X207358Y59858D02*
X209000Y61500D01*
X204354Y59858D02*
X207358D01*
X207921Y55921D02*
X208000Y56000D01*
X204354Y55921D02*
X207921D01*
X197563Y57890D02*
X204354D01*
X191657Y51000D02*
Y53079D01*
X196579Y58874D02*
X197563Y57890D01*
X196579Y58000D02*
Y58874D01*
X191657Y53079D02*
X196579Y58000D01*
D47*
X179000Y127500D02*
D03*
Y118500D02*
D03*
D48*
X187000Y126500D02*
D03*
X187001Y119351D02*
D03*
X148500Y177500D02*
D03*
X148500Y184649D02*
D03*
X138400Y177500D02*
D03*
X138400Y184649D02*
D03*
X101000Y181000D02*
D03*
X101000Y188149D02*
D03*
X91000Y181000D02*
D03*
X91000Y188149D02*
D03*
X204200Y185000D02*
D03*
X204200Y192149D02*
D03*
X180000Y95000D02*
D03*
X180000Y87851D02*
D03*
X193500Y94751D02*
D03*
X193500Y101900D02*
D03*
D49*
X82500Y185300D02*
D03*
Y192700D02*
D03*
X177199Y184949D02*
D03*
Y192349D02*
D03*
X193500Y107600D02*
D03*
Y115000D02*
D03*
D50*
X161500Y172500D02*
D03*
X155500D02*
D03*
X66500Y182000D02*
D03*
Y177000D02*
D03*
Y172000D02*
D03*
Y167000D02*
D03*
D51*
X197105Y184909D02*
D03*
Y188649D02*
D03*
Y192389D02*
D03*
X185294D02*
D03*
Y184909D02*
D03*
D52*
X204200Y178000D02*
D03*
X196800D02*
D03*
X199500Y91000D02*
D03*
X206900D02*
D03*
X198800Y76000D02*
D03*
X206200D02*
D03*
X173300Y62500D02*
D03*
X180700D02*
D03*
X86600Y50476D02*
D03*
X94000D02*
D03*
D53*
X133543Y124287D02*
D03*
Y117063D02*
D03*
Y109839D02*
D03*
X126319Y124287D02*
D03*
Y117063D02*
D03*
Y109839D02*
D03*
X119095Y124287D02*
D03*
Y117063D02*
D03*
Y109839D02*
D03*
D54*
X96791Y154465D02*
D03*
X101791D02*
D03*
X106791D02*
D03*
X111791D02*
D03*
X116791D02*
D03*
X121791D02*
D03*
X126791D02*
D03*
X131791D02*
D03*
X136791D02*
D03*
X141791D02*
D03*
X146791D02*
D03*
X151791D02*
D03*
X156791D02*
D03*
X161791D02*
D03*
Y87535D02*
D03*
X156791D02*
D03*
X151791D02*
D03*
X146791D02*
D03*
X141791D02*
D03*
X136791D02*
D03*
X131791D02*
D03*
X126791D02*
D03*
X121791D02*
D03*
X116791D02*
D03*
X111791D02*
D03*
X106791D02*
D03*
X101791D02*
D03*
X96791D02*
D03*
D55*
X165728Y143500D02*
D03*
Y138500D02*
D03*
Y133500D02*
D03*
Y128500D02*
D03*
Y123500D02*
D03*
Y118500D02*
D03*
Y113500D02*
D03*
Y108500D02*
D03*
Y103500D02*
D03*
Y98500D02*
D03*
D56*
X207100Y118100D02*
D03*
Y98900D02*
D03*
X198700Y101900D02*
D03*
Y115000D02*
D03*
D57*
X191657Y51000D02*
D03*
X193626D02*
D03*
X195595D02*
D03*
X197563D02*
D03*
X199531D02*
D03*
X201500D02*
D03*
Y66748D02*
D03*
X199531D02*
D03*
X197563D02*
D03*
X195595D02*
D03*
X193626D02*
D03*
X191657D02*
D03*
D58*
X196579Y58874D02*
D03*
D59*
X204354Y53953D02*
D03*
Y55921D02*
D03*
Y57890D02*
D03*
Y59858D02*
D03*
Y61827D02*
D03*
Y63795D02*
D03*
X188803D02*
D03*
Y61827D02*
D03*
Y59858D02*
D03*
Y57890D02*
D03*
Y55921D02*
D03*
Y53953D02*
D03*
D60*
X167149Y79001D02*
D03*
X160000Y79000D02*
D03*
X167149Y73501D02*
D03*
X160000Y73500D02*
D03*
X157800Y66501D02*
D03*
X164949Y66501D02*
D03*
X144800Y66500D02*
D03*
X151949Y66501D02*
D03*
D61*
X165240Y60343D02*
D03*
X157800Y60321D02*
D03*
X161500Y50500D02*
D03*
X152240Y60421D02*
D03*
X144800Y60400D02*
D03*
X148500Y50579D02*
D03*
D62*
X137000Y72524D02*
D03*
X132000D02*
D03*
X127000D02*
D03*
X122000D02*
D03*
X117000D02*
D03*
X112000D02*
D03*
X107000D02*
D03*
X102000D02*
D03*
Y50476D02*
D03*
X107000D02*
D03*
X112000D02*
D03*
X117000D02*
D03*
X122000D02*
D03*
X127000D02*
D03*
X132000D02*
D03*
X137000D02*
D03*
D63*
X77082Y68118D02*
D03*
Y65559D02*
D03*
Y63000D02*
D03*
Y60441D02*
D03*
Y57882D02*
D03*
D64*
X163500Y176000D02*
X169500D01*
X161500Y178000D02*
X163500Y176000D01*
X128500Y184949D02*
X138699D01*
X121551D02*
X128500D01*
X128600Y184849D01*
Y169000D02*
Y184849D01*
X138699Y184949D02*
X177199D01*
X118351Y188149D02*
X121551Y184949D01*
X101000Y188149D02*
X118351D01*
X106000Y184500D02*
X118500Y172000D01*
X83300Y184500D02*
X106000D01*
X118500Y169000D02*
Y172000D01*
X82500Y185300D02*
X83300Y184500D01*
X75300Y185300D02*
X82500D01*
X72000Y182000D02*
X75300Y185300D01*
X66500Y182000D02*
X72000D01*
X66500Y187000D02*
X72200Y192700D01*
X82500D01*
X86449D01*
X91000Y188149D01*
X101000D01*
X106791Y154465D02*
Y168209D01*
X79500Y181000D02*
X91000D01*
X94000D01*
X106791Y168209D01*
X101000Y181000D02*
X111500Y170501D01*
Y164500D02*
Y170501D01*
Y164500D02*
X114500Y161500D01*
X119500D01*
X66500Y177000D02*
X75500D01*
X79500Y181000D01*
X81000Y177000D02*
X92500D01*
X101791Y167709D01*
X71000Y167000D02*
X81000Y177000D01*
X66500Y167000D02*
X71000D01*
X101791Y154465D02*
Y167709D01*
X119500Y161500D02*
X121791Y159209D01*
X138400Y184649D02*
X138699Y184949D01*
X138400Y169000D02*
Y177500D01*
X148500Y169000D02*
Y177500D01*
X187000Y126500D02*
Y138500D01*
X177199Y192349D02*
Y192389D01*
X197196Y185000D02*
X204200D01*
Y184909D02*
Y185000D01*
X177199Y184949D02*
X185254D01*
X185294Y184909D01*
X177199Y192349D02*
X180900Y188649D01*
X197105D01*
X194900Y169500D02*
X196800Y171400D01*
Y178000D01*
X204200Y170800D02*
Y178000D01*
Y170300D02*
Y170800D01*
Y170300D02*
X205000Y169500D01*
X197105Y192389D02*
X203960D01*
X204200Y192149D01*
X186500Y177000D02*
X194409Y184909D01*
X175500Y177000D02*
X186500D01*
X194409Y184909D02*
X197105D01*
X197196Y185000D01*
X170000Y171500D02*
X175500Y177000D01*
X170000Y161000D02*
Y171500D01*
Y161000D02*
X181000Y150000D01*
X200000D01*
X122000Y73154D02*
Y76500D01*
Y72524D02*
Y73154D01*
X96791Y79209D02*
Y87535D01*
Y79209D02*
X97500Y78500D01*
X161500Y50500D02*
X166500D01*
X171500Y55500D01*
X121791Y154465D02*
Y159209D01*
X188500Y97000D02*
X191251D01*
X193500Y94751D01*
X139000Y162000D02*
X145500D01*
X148500Y165000D01*
Y169000D01*
X136791Y154465D02*
Y159791D01*
X139000Y162000D01*
X131791Y160291D02*
X138400Y166900D01*
X101791Y87535D02*
Y128209D01*
X101500Y128500D02*
X101791Y128209D01*
X106500Y78000D02*
X120500D01*
X101791Y82709D02*
X106500Y78000D01*
X101791Y82709D02*
Y87535D01*
X193500Y93999D02*
Y94751D01*
X196500Y91000D02*
X199500D01*
X193500Y93999D02*
X196500Y91000D01*
X120500Y78000D02*
X122000Y76500D01*
X111791Y148243D02*
Y154465D01*
X116791Y148250D02*
Y154465D01*
X116785Y148243D02*
X116791Y148250D01*
X132000Y72524D02*
Y76500D01*
X127000Y72524D02*
Y76500D01*
X137000Y50476D02*
Y53500D01*
X122000Y68500D02*
X137000Y53500D01*
X122000Y68500D02*
Y72524D01*
X96791Y134500D02*
Y154465D01*
Y87535D02*
Y134500D01*
X108882D01*
X119095Y124287D01*
X129931Y117063D02*
X133543D01*
X126319D02*
X129931D01*
X122707D02*
X126319D01*
X119095D02*
X122707D01*
X126319Y120675D02*
Y124287D01*
Y117063D02*
Y120675D01*
Y113451D02*
Y117063D01*
Y109839D02*
Y113451D01*
X129931Y109839D02*
X133543D01*
X126319D02*
X129931D01*
X122707D02*
X126319D01*
X119095D02*
X122707D01*
X119095Y120675D02*
Y124287D01*
Y117063D02*
Y120675D01*
Y113451D02*
Y117063D01*
Y109839D02*
Y113451D01*
X133543Y120675D02*
Y124287D01*
Y117063D02*
Y120675D01*
Y113451D02*
Y117063D01*
Y109839D02*
Y113451D01*
X129931Y124287D02*
X133543D01*
X126319D02*
X129931D01*
X122707D02*
X126319D01*
X119095D02*
X122707D01*
X138400Y166900D02*
Y169000D01*
X131791Y154465D02*
Y160291D01*
D65*
X163500Y181500D02*
X165000Y180000D01*
X183500D01*
X158500Y181500D02*
X163500D01*
X183500Y180000D02*
X184000Y180500D01*
X204200Y170800D02*
X208500Y166500D01*
X139500Y146500D02*
X141791Y148791D01*
X132500Y146500D02*
X139500D01*
X186149Y118500D02*
X187001Y119351D01*
X179000Y118500D02*
X186149D01*
X164000Y162000D02*
X179000Y147000D01*
Y127500D02*
Y147000D01*
X160000Y162000D02*
X164000D01*
X204000Y171000D02*
X204200Y170800D01*
X205000Y142000D02*
X208500Y145500D01*
Y166500D01*
X200000Y142000D02*
X205000D01*
X146791Y157791D02*
X155500Y166500D01*
Y172500D01*
X151791Y158291D02*
X161500Y168000D01*
Y173629D01*
X156791Y158791D02*
X160000Y162000D01*
X156791Y154465D02*
Y158791D01*
X151791Y154465D02*
Y158291D01*
X146791Y154465D02*
Y157791D01*
X141791Y148791D02*
Y154465D01*
X117000Y67965D02*
Y72524D01*
X112035Y63000D02*
X117000Y67965D01*
X112000Y66500D02*
Y72524D01*
X77082Y63000D02*
X112035D01*
X111059Y65559D02*
X112000Y66500D01*
X77082Y65559D02*
X111059D01*
D66*
X66500Y187000D02*
D03*
D67*
X194900Y169500D02*
D03*
X205000D02*
D03*
X118500Y169000D02*
D03*
X128600D02*
D03*
X138400D02*
D03*
X148500D02*
D03*
D68*
X86500Y76000D02*
D03*
Y166000D02*
D03*
X180500Y76000D02*
D03*
Y166000D02*
D03*
D69*
X133543Y120675D02*
D03*
Y113451D02*
D03*
X129931Y124287D02*
D03*
Y117063D02*
D03*
Y109839D02*
D03*
X126319Y120675D02*
D03*
Y113451D02*
D03*
X122707Y124287D02*
D03*
Y117063D02*
D03*
Y109839D02*
D03*
X119095Y120675D02*
D03*
Y113451D02*
D03*
D70*
X200000Y142000D02*
D03*
Y134000D02*
D03*
D71*
Y150000D02*
D03*
D72*
Y125000D02*
D03*
Y159000D02*
D03*
D73*
X205000Y105100D02*
D03*
Y111900D02*
D03*
D74*
X65000Y75992D02*
D03*
Y50008D02*
D03*
D75*
X193500Y115000D02*
D03*
X207000Y91000D02*
D03*
X196000Y81000D02*
D03*
X169500Y176000D02*
D03*
X158500Y181500D02*
D03*
X161500Y178000D02*
D03*
X101000Y181000D02*
D03*
X132500Y146500D02*
D03*
X165942Y185000D02*
D03*
X162000Y151000D02*
D03*
X187000Y138500D02*
D03*
X177199Y192389D02*
D03*
X184000Y180500D02*
D03*
X204200Y184909D02*
D03*
X122000Y73154D02*
D03*
X155000Y97700D02*
D03*
X131500Y93500D02*
D03*
X137000D02*
D03*
X107000Y95500D02*
D03*
X120500Y65000D02*
D03*
X118950Y58500D02*
D03*
X107000Y60000D02*
D03*
X97500Y78500D02*
D03*
X94000Y50476D02*
D03*
X174500Y52000D02*
D03*
X171500Y55500D02*
D03*
X142500Y52500D02*
D03*
X136791Y80000D02*
D03*
X188500Y97000D02*
D03*
X101500Y128500D02*
D03*
X163000Y98500D02*
D03*
X137000Y75000D02*
D03*
X176000Y99500D02*
D03*
X199500Y91000D02*
D03*
X166000Y89500D02*
D03*
X173000Y105000D02*
D03*
X159996Y79000D02*
D03*
X137000Y66000D02*
D03*
X144500Y59300D02*
D03*
X126500Y58500D02*
D03*
X158000Y62000D02*
D03*
X129000Y55500D02*
D03*
X160000Y73500D02*
D03*
X179700Y57890D02*
D03*
X178500Y54000D02*
D03*
X73000Y82500D02*
D03*
X111791Y148243D02*
D03*
X116785D02*
D03*
X132000Y76500D02*
D03*
X127000D02*
D03*
X199531Y71000D02*
D03*
X173500Y91000D02*
D03*
X208000Y56000D02*
D03*
M02*
