G04*
G04 #@! TF.GenerationSoftware,Altium Limited,Altium Designer,21.0.8 (223)*
G04*
G04 Layer_Color=16711935*
%FSLAX25Y25*%
%MOIN*%
G70*
G04*
G04 #@! TF.SameCoordinates,86129925-6DC0-4F64-9783-D3B182DB2879*
G04*
G04*
G04 #@! TF.FilePolarity,Negative*
G04*
G01*
G75*
%ADD21R,0.04343X0.03162*%
%ADD22R,0.04340X0.04537*%
%ADD23C,0.04800*%
%ADD25R,0.04537X0.04340*%
%ADD33R,0.03162X0.04343*%
%ADD37R,0.04800X0.04800*%
%ADD38O,0.07300X0.08300*%
%ADD39C,0.16548*%
%ADD40C,0.01981*%
%ADD41O,0.12800X0.07200*%
%ADD42O,0.12800X0.07000*%
%ADD43R,0.12800X0.07200*%
%ADD44C,0.03000*%
G04:AMPARAMS|DCode=45|XSize=86.74mil|YSize=55.24mil|CornerRadius=18.17mil|HoleSize=0mil|Usage=FLASHONLY|Rotation=0.000|XOffset=0mil|YOffset=0mil|HoleType=Round|Shape=RoundedRectangle|*
%AMROUNDEDRECTD45*
21,1,0.08674,0.01890,0,0,0.0*
21,1,0.05039,0.05524,0,0,0.0*
1,1,0.03635,0.02520,-0.00945*
1,1,0.03635,-0.02520,-0.00945*
1,1,0.03635,-0.02520,0.00945*
1,1,0.03635,0.02520,0.00945*
%
%ADD45ROUNDEDRECTD45*%
%ADD46C,0.03200*%
%ADD82R,0.08674X0.08674*%
%ADD83R,0.08674X0.08674*%
G04:AMPARAMS|DCode=84|XSize=106.42mil|YSize=177.29mil|CornerRadius=28.61mil|HoleSize=0mil|Usage=FLASHONLY|Rotation=180.000|XOffset=0mil|YOffset=0mil|HoleType=Round|Shape=RoundedRectangle|*
%AMROUNDEDRECTD84*
21,1,0.10642,0.12008,0,0,180.0*
21,1,0.04921,0.17729,0,0,180.0*
1,1,0.05721,-0.02461,0.06004*
1,1,0.05721,0.02461,0.06004*
1,1,0.05721,0.02461,-0.06004*
1,1,0.05721,-0.02461,-0.06004*
%
%ADD84ROUNDEDRECTD84*%
%ADD85R,0.03556X0.05918*%
%ADD86R,0.13398X0.09855*%
D21*
X101500Y115000D02*
D03*
X101499Y107851D02*
D03*
D22*
X129000Y71000D02*
D03*
Y63600D02*
D03*
D23*
X130500Y97500D02*
D03*
X138000D02*
D03*
X66500Y182000D02*
D03*
Y177000D02*
D03*
Y172000D02*
D03*
Y167000D02*
D03*
D25*
X166523Y138000D02*
D03*
X159123D02*
D03*
X166523Y106000D02*
D03*
X159123D02*
D03*
X192800Y62000D02*
D03*
X200200D02*
D03*
X192800Y56500D02*
D03*
X200200D02*
D03*
X192800Y51000D02*
D03*
X200200D02*
D03*
D33*
X150162Y138000D02*
D03*
X143013Y138001D02*
D03*
X150162Y106000D02*
D03*
X143013Y106001D02*
D03*
X119149Y80999D02*
D03*
X112000Y81000D02*
D03*
X125351Y50001D02*
D03*
X132500Y50000D02*
D03*
D37*
X66500Y187000D02*
D03*
D38*
X194900Y169500D02*
D03*
X205000D02*
D03*
X118500Y169000D02*
D03*
X128600D02*
D03*
X138400D02*
D03*
X148500D02*
D03*
D39*
X86500Y76000D02*
D03*
Y166000D02*
D03*
X180500Y76000D02*
D03*
Y166000D02*
D03*
D40*
X133543Y120675D02*
D03*
Y113451D02*
D03*
X129931Y124287D02*
D03*
Y117063D02*
D03*
Y109839D02*
D03*
X126319Y120675D02*
D03*
Y113451D02*
D03*
X122707Y124287D02*
D03*
Y117063D02*
D03*
Y109839D02*
D03*
X119095Y120675D02*
D03*
Y113451D02*
D03*
D41*
X200000Y142000D02*
D03*
Y134000D02*
D03*
D42*
Y150000D02*
D03*
D43*
Y125000D02*
D03*
Y159000D02*
D03*
D44*
X205000Y105100D02*
D03*
Y111900D02*
D03*
D45*
X65000Y75992D02*
D03*
Y50008D02*
D03*
D46*
X193500Y115000D02*
D03*
X207000Y91000D02*
D03*
X196000Y81000D02*
D03*
X169500Y176000D02*
D03*
X158500Y181500D02*
D03*
X161500Y178000D02*
D03*
X101000Y181000D02*
D03*
X132500Y146500D02*
D03*
X165942Y185000D02*
D03*
X162000Y151000D02*
D03*
X187000Y138500D02*
D03*
X177199Y192389D02*
D03*
X184000Y180500D02*
D03*
X204200Y184909D02*
D03*
X122000Y73154D02*
D03*
X155000Y97700D02*
D03*
X131500Y93500D02*
D03*
X137000D02*
D03*
X107000Y95500D02*
D03*
X120500Y65000D02*
D03*
X118950Y58500D02*
D03*
X107000Y60000D02*
D03*
X97500Y78500D02*
D03*
X94000Y50476D02*
D03*
X174500Y52000D02*
D03*
X171500Y55500D02*
D03*
X142500Y52500D02*
D03*
X136791Y80000D02*
D03*
X188500Y97000D02*
D03*
X101500Y128500D02*
D03*
X163000Y98500D02*
D03*
X137000Y75000D02*
D03*
X176000Y99500D02*
D03*
X199500Y91000D02*
D03*
X166000Y89500D02*
D03*
X173000Y105000D02*
D03*
X159996Y79000D02*
D03*
X137000Y66000D02*
D03*
X144500Y59300D02*
D03*
X126500Y58500D02*
D03*
X158000Y62000D02*
D03*
X129000Y55500D02*
D03*
X160000Y73500D02*
D03*
X179700Y57890D02*
D03*
X178500Y54000D02*
D03*
X73000Y82500D02*
D03*
X111791Y148243D02*
D03*
X116785D02*
D03*
X132000Y76500D02*
D03*
X127000D02*
D03*
X199531Y71000D02*
D03*
X173500Y91000D02*
D03*
X208000Y56000D02*
D03*
D82*
X163823Y128500D02*
D03*
Y115500D02*
D03*
D83*
X146500Y128500D02*
D03*
Y115500D02*
D03*
D84*
X203000Y185000D02*
D03*
X175500Y185000D02*
D03*
D85*
X102000Y51500D02*
D03*
X107000D02*
D03*
X117000D02*
D03*
X112000D02*
D03*
X102000Y73154D02*
D03*
X107000D02*
D03*
X117000D02*
D03*
X112000D02*
D03*
D86*
X109500Y62227D02*
D03*
M02*
