G04*
G04 #@! TF.GenerationSoftware,Altium Limited,Altium Designer,21.0.8 (223)*
G04*
G04 Layer_Color=16711935*
%FSLAX25Y25*%
%MOIN*%
G70*
G04*
G04 #@! TF.SameCoordinates,86129925-6DC0-4F64-9783-D3B182DB2879*
G04*
G04*
G04 #@! TF.FilePolarity,Positive*
G04*
G01*
G75*
%ADD10C,0.00500*%
%ADD12C,0.00787*%
%ADD16C,0.00394*%
%ADD19C,0.00600*%
G36*
X101000Y52500D02*
X103000D01*
Y48500D01*
X101000D01*
Y52500D01*
D02*
G37*
G36*
X106000D02*
X108000D01*
Y48500D01*
X106000D01*
Y52500D01*
D02*
G37*
G36*
X111000D02*
X113000D01*
Y48500D01*
X111000D01*
Y52500D01*
D02*
G37*
G36*
X116000D02*
X118000D01*
Y48500D01*
X116000D01*
Y52500D01*
D02*
G37*
G36*
X101000Y74500D02*
X103000D01*
Y70450D01*
X101000D01*
Y74500D01*
D02*
G37*
G36*
X106000D02*
X108000D01*
Y70450D01*
X106000D01*
Y74500D01*
D02*
G37*
G36*
X111000D02*
X113000D01*
Y70450D01*
X111000D01*
Y74500D01*
D02*
G37*
G36*
X116000D02*
X118000D01*
Y70450D01*
X116000D01*
Y74500D01*
D02*
G37*
G36*
X121000Y52500D02*
X123000D01*
Y48500D01*
X121000D01*
Y52500D01*
D02*
G37*
G36*
X126000D02*
X128000D01*
Y48500D01*
X126000D01*
Y52500D01*
D02*
G37*
G36*
X131000D02*
X133000D01*
Y48500D01*
X131000D01*
Y52500D01*
D02*
G37*
G36*
X136000D02*
X138000D01*
Y48250D01*
X136000D01*
Y52500D01*
D02*
G37*
G36*
X121000Y74500D02*
X123000D01*
Y70450D01*
X121000D01*
Y74500D01*
D02*
G37*
G36*
X126000D02*
X128000D01*
Y70450D01*
X126000D01*
Y74500D01*
D02*
G37*
G36*
X131000D02*
X133000D01*
Y70450D01*
X131000D01*
Y74500D01*
D02*
G37*
G36*
X136000D02*
X138000D01*
Y70450D01*
X136000D01*
Y74500D01*
D02*
G37*
D10*
X92106Y85567D02*
Y156433D01*
X67303Y85567D02*
X92106D01*
X167697D01*
Y156433D01*
X92106D02*
X167697D01*
X67303D02*
X92106D01*
X67303Y85567D02*
Y156433D01*
X204453Y51000D02*
Y66748D01*
X188705Y51000D02*
Y66748D01*
X204453D01*
X188705Y51000D02*
X204453D01*
D12*
X97224Y81630D02*
X96437D01*
X97224D01*
X190083Y47063D02*
X189295D01*
X190083D01*
D16*
X80925Y185650D02*
X84075D01*
X80925Y191950D02*
X84075D01*
X175625Y185299D02*
X178774D01*
X175625Y191598D02*
X178774D01*
X203850Y176425D02*
Y179575D01*
X197550Y176425D02*
Y179575D01*
X127425Y70650D02*
X130575D01*
X127425Y64350D02*
X130575D01*
X166173Y136425D02*
Y139575D01*
X159873Y136425D02*
Y139575D01*
X166173Y104425D02*
Y107575D01*
X159873Y104425D02*
Y107575D01*
X193550Y60425D02*
Y63575D01*
X199850Y60425D02*
Y63575D01*
X193550Y54925D02*
Y58075D01*
X199850Y54925D02*
Y58075D01*
X193550Y49425D02*
Y52575D01*
X199850Y49425D02*
Y52575D01*
X191925Y108350D02*
X195075D01*
X191925Y114650D02*
X195075D01*
X200250Y89425D02*
Y92575D01*
X206550Y89425D02*
Y92575D01*
X199550Y74425D02*
Y77575D01*
X205850Y74425D02*
Y77575D01*
X174050Y60925D02*
Y64075D01*
X180350Y60925D02*
Y64075D01*
X87350Y48902D02*
Y52051D01*
X93650Y48902D02*
Y52051D01*
D19*
X82067Y97378D02*
X80734D01*
X80068Y98044D01*
X80734Y98711D01*
X82067D01*
X81067D01*
Y97378D01*
X82067Y99377D02*
X80068D01*
X82067Y100710D01*
X80068D01*
Y101377D02*
Y102709D01*
Y102043D01*
X82067D01*
X80068Y104709D02*
Y103376D01*
X82067D01*
Y104709D01*
X81067Y103376D02*
Y104042D01*
X82067Y105375D02*
X80068D01*
X82067Y106708D01*
X80068D01*
X82067Y107375D02*
X80068D01*
X82067Y108708D01*
X80068D01*
X82067Y109374D02*
X80734D01*
X80068Y110040D01*
X80734Y110707D01*
X82067D01*
X81067D01*
Y109374D01*
M02*
