G04*
G04 #@! TF.GenerationSoftware,Altium Limited,Altium Designer,21.0.8 (223)*
G04*
G04 Layer_Color=8388736*
%FSLAX25Y25*%
%MOIN*%
G70*
G04*
G04 #@! TF.SameCoordinates,86129925-6DC0-4F64-9783-D3B182DB2879*
G04*
G04*
G04 #@! TF.FilePolarity,Negative*
G04*
G01*
G75*
%ADD20R,0.06300X0.05800*%
%ADD21R,0.04343X0.03162*%
%ADD22R,0.04340X0.04537*%
%ADD23C,0.04800*%
%ADD24R,0.06706X0.03162*%
%ADD25R,0.04537X0.04340*%
%ADD26R,0.06036X0.06036*%
%ADD27R,0.04343X0.08674*%
%ADD28R,0.08674X0.04343*%
%ADD29R,0.04800X0.03300*%
G04:AMPARAMS|DCode=30|XSize=39.5mil|YSize=21.78mil|CornerRadius=5.72mil|HoleSize=0mil|Usage=FLASHONLY|Rotation=90.000|XOffset=0mil|YOffset=0mil|HoleType=Round|Shape=RoundedRectangle|*
%AMROUNDEDRECTD30*
21,1,0.03950,0.01034,0,0,90.0*
21,1,0.02805,0.02178,0,0,90.0*
1,1,0.01145,0.00517,0.01403*
1,1,0.01145,0.00517,-0.01403*
1,1,0.01145,-0.00517,-0.01403*
1,1,0.01145,-0.00517,0.01403*
%
%ADD30ROUNDEDRECTD30*%
%ADD31R,0.09800X0.09800*%
G04:AMPARAMS|DCode=32|XSize=41.47mil|YSize=21.78mil|CornerRadius=5.72mil|HoleSize=0mil|Usage=FLASHONLY|Rotation=180.000|XOffset=0mil|YOffset=0mil|HoleType=Round|Shape=RoundedRectangle|*
%AMROUNDEDRECTD32*
21,1,0.04147,0.01034,0,0,180.0*
21,1,0.03002,0.02178,0,0,180.0*
1,1,0.01145,-0.01501,0.00517*
1,1,0.01145,0.01501,0.00517*
1,1,0.01145,0.01501,-0.00517*
1,1,0.01145,-0.01501,-0.00517*
%
%ADD32ROUNDEDRECTD32*%
%ADD33R,0.03162X0.04343*%
%ADD34R,0.04147X0.05524*%
%ADD35R,0.03162X0.05524*%
%ADD36R,0.05709X0.01968*%
%ADD37R,0.04800X0.04800*%
%ADD38O,0.07300X0.08300*%
%ADD39C,0.16548*%
%ADD40C,0.01981*%
%ADD41O,0.12800X0.07200*%
%ADD42O,0.12800X0.07000*%
%ADD43R,0.12800X0.07200*%
%ADD44C,0.03000*%
G04:AMPARAMS|DCode=45|XSize=86.74mil|YSize=55.24mil|CornerRadius=18.17mil|HoleSize=0mil|Usage=FLASHONLY|Rotation=0.000|XOffset=0mil|YOffset=0mil|HoleType=Round|Shape=RoundedRectangle|*
%AMROUNDEDRECTD45*
21,1,0.08674,0.01890,0,0,0.0*
21,1,0.05039,0.05524,0,0,0.0*
1,1,0.03635,0.02520,-0.00945*
1,1,0.03635,-0.02520,-0.00945*
1,1,0.03635,-0.02520,0.00945*
1,1,0.03635,0.02520,0.00945*
%
%ADD45ROUNDEDRECTD45*%
%ADD46C,0.03200*%
D20*
X179000Y127500D02*
D03*
Y118500D02*
D03*
D21*
X187000Y126500D02*
D03*
X187001Y119351D02*
D03*
X148500Y177500D02*
D03*
X148500Y184649D02*
D03*
X138400Y177500D02*
D03*
X138400Y184649D02*
D03*
X101000Y181000D02*
D03*
X101000Y188149D02*
D03*
X91000Y181000D02*
D03*
X91000Y188149D02*
D03*
X204200Y185000D02*
D03*
X204200Y192149D02*
D03*
X180000Y95000D02*
D03*
X180000Y87851D02*
D03*
X193500Y94751D02*
D03*
X193500Y101900D02*
D03*
D22*
X82500Y185300D02*
D03*
Y192700D02*
D03*
X177199Y184949D02*
D03*
Y192349D02*
D03*
X193500Y107600D02*
D03*
Y115000D02*
D03*
D23*
X161500Y172500D02*
D03*
X155500D02*
D03*
X66500Y182000D02*
D03*
Y177000D02*
D03*
Y172000D02*
D03*
Y167000D02*
D03*
D24*
X197105Y184909D02*
D03*
Y188649D02*
D03*
Y192389D02*
D03*
X185294D02*
D03*
Y184909D02*
D03*
D25*
X204200Y178000D02*
D03*
X196800D02*
D03*
X199500Y91000D02*
D03*
X206900D02*
D03*
X198800Y76000D02*
D03*
X206200D02*
D03*
X173300Y62500D02*
D03*
X180700D02*
D03*
X86600Y50476D02*
D03*
X94000D02*
D03*
D26*
X133543Y124287D02*
D03*
Y117063D02*
D03*
Y109839D02*
D03*
X126319Y124287D02*
D03*
Y117063D02*
D03*
Y109839D02*
D03*
X119095Y124287D02*
D03*
Y117063D02*
D03*
Y109839D02*
D03*
D27*
X96791Y154465D02*
D03*
X101791D02*
D03*
X106791D02*
D03*
X111791D02*
D03*
X116791D02*
D03*
X121791D02*
D03*
X126791D02*
D03*
X131791D02*
D03*
X136791D02*
D03*
X141791D02*
D03*
X146791D02*
D03*
X151791D02*
D03*
X156791D02*
D03*
X161791D02*
D03*
Y87535D02*
D03*
X156791D02*
D03*
X151791D02*
D03*
X146791D02*
D03*
X141791D02*
D03*
X136791D02*
D03*
X131791D02*
D03*
X126791D02*
D03*
X121791D02*
D03*
X116791D02*
D03*
X111791D02*
D03*
X106791D02*
D03*
X101791D02*
D03*
X96791D02*
D03*
D28*
X165728Y143500D02*
D03*
Y138500D02*
D03*
Y133500D02*
D03*
Y128500D02*
D03*
Y123500D02*
D03*
Y118500D02*
D03*
Y113500D02*
D03*
Y108500D02*
D03*
Y103500D02*
D03*
Y98500D02*
D03*
D29*
X207100Y118100D02*
D03*
Y98900D02*
D03*
X198700Y101900D02*
D03*
Y115000D02*
D03*
D30*
X191657Y51000D02*
D03*
X193626D02*
D03*
X195595D02*
D03*
X197563D02*
D03*
X199531D02*
D03*
X201500D02*
D03*
Y66748D02*
D03*
X199531D02*
D03*
X197563D02*
D03*
X195595D02*
D03*
X193626D02*
D03*
X191657D02*
D03*
D31*
X196579Y58874D02*
D03*
D32*
X204354Y53953D02*
D03*
Y55921D02*
D03*
Y57890D02*
D03*
Y59858D02*
D03*
Y61827D02*
D03*
Y63795D02*
D03*
X188803D02*
D03*
Y61827D02*
D03*
Y59858D02*
D03*
Y57890D02*
D03*
Y55921D02*
D03*
Y53953D02*
D03*
D33*
X167149Y79001D02*
D03*
X160000Y79000D02*
D03*
X167149Y73501D02*
D03*
X160000Y73500D02*
D03*
X157800Y66501D02*
D03*
X164949Y66501D02*
D03*
X144800Y66500D02*
D03*
X151949Y66501D02*
D03*
D34*
X165240Y60343D02*
D03*
X157800Y60321D02*
D03*
X161500Y50500D02*
D03*
X152240Y60421D02*
D03*
X144800Y60400D02*
D03*
X148500Y50579D02*
D03*
D35*
X137000Y72524D02*
D03*
X132000D02*
D03*
X127000D02*
D03*
X122000D02*
D03*
X117000D02*
D03*
X112000D02*
D03*
X107000D02*
D03*
X102000D02*
D03*
Y50476D02*
D03*
X107000D02*
D03*
X112000D02*
D03*
X117000D02*
D03*
X122000D02*
D03*
X127000D02*
D03*
X132000D02*
D03*
X137000D02*
D03*
D36*
X77082Y68118D02*
D03*
Y65559D02*
D03*
Y63000D02*
D03*
Y60441D02*
D03*
Y57882D02*
D03*
D37*
X66500Y187000D02*
D03*
D38*
X194900Y169500D02*
D03*
X205000D02*
D03*
X118500Y169000D02*
D03*
X128600D02*
D03*
X138400D02*
D03*
X148500D02*
D03*
D39*
X86500Y76000D02*
D03*
Y166000D02*
D03*
X180500Y76000D02*
D03*
Y166000D02*
D03*
D40*
X133543Y120675D02*
D03*
Y113451D02*
D03*
X129931Y124287D02*
D03*
Y117063D02*
D03*
Y109839D02*
D03*
X126319Y120675D02*
D03*
Y113451D02*
D03*
X122707Y124287D02*
D03*
Y117063D02*
D03*
Y109839D02*
D03*
X119095Y120675D02*
D03*
Y113451D02*
D03*
D41*
X200000Y142000D02*
D03*
Y134000D02*
D03*
D42*
Y150000D02*
D03*
D43*
Y125000D02*
D03*
Y159000D02*
D03*
D44*
X205000Y105100D02*
D03*
Y111900D02*
D03*
D45*
X65000Y75992D02*
D03*
Y50008D02*
D03*
D46*
X193500Y115000D02*
D03*
X207000Y91000D02*
D03*
X196000Y81000D02*
D03*
X169500Y176000D02*
D03*
X158500Y181500D02*
D03*
X161500Y178000D02*
D03*
X101000Y181000D02*
D03*
X132500Y146500D02*
D03*
X165942Y185000D02*
D03*
X162000Y151000D02*
D03*
X187000Y138500D02*
D03*
X177199Y192389D02*
D03*
X184000Y180500D02*
D03*
X204200Y184909D02*
D03*
X122000Y73154D02*
D03*
X155000Y97700D02*
D03*
X131500Y93500D02*
D03*
X137000D02*
D03*
X107000Y95500D02*
D03*
X120500Y65000D02*
D03*
X118950Y58500D02*
D03*
X107000Y60000D02*
D03*
X97500Y78500D02*
D03*
X94000Y50476D02*
D03*
X174500Y52000D02*
D03*
X171500Y55500D02*
D03*
X142500Y52500D02*
D03*
X136791Y80000D02*
D03*
X188500Y97000D02*
D03*
X101500Y128500D02*
D03*
X163000Y98500D02*
D03*
X137000Y75000D02*
D03*
X176000Y99500D02*
D03*
X199500Y91000D02*
D03*
X166000Y89500D02*
D03*
X173000Y105000D02*
D03*
X159996Y79000D02*
D03*
X137000Y66000D02*
D03*
X144500Y59300D02*
D03*
X126500Y58500D02*
D03*
X158000Y62000D02*
D03*
X129000Y55500D02*
D03*
X160000Y73500D02*
D03*
X179700Y57890D02*
D03*
X178500Y54000D02*
D03*
X73000Y82500D02*
D03*
X111791Y148243D02*
D03*
X116785D02*
D03*
X132000Y76500D02*
D03*
X127000D02*
D03*
X199531Y71000D02*
D03*
X173500Y91000D02*
D03*
X208000Y56000D02*
D03*
M02*
