G04*
G04 #@! TF.GenerationSoftware,Altium Limited,Altium Designer,21.0.8 (223)*
G04*
G04 Layer_Color=65535*
%FSLAX25Y25*%
%MOIN*%
G70*
G04*
G04 #@! TF.SameCoordinates,86129925-6DC0-4F64-9783-D3B182DB2879*
G04*
G04*
G04 #@! TF.FilePolarity,Positive*
G04*
G01*
G75*
%ADD10C,0.00500*%
%ADD11C,0.00984*%
%ADD12C,0.00787*%
%ADD13C,0.01000*%
%ADD14C,0.00800*%
%ADD15C,0.00400*%
%ADD16C,0.00394*%
%ADD17C,0.00700*%
%ADD18C,0.00315*%
%ADD19C,0.00600*%
G36*
X194900Y163900D02*
X192400Y161400D01*
X197400D01*
X194900Y163900D01*
D02*
G37*
D10*
X70224Y187000D02*
X69588Y187367D01*
Y186633D01*
X70224Y187000D01*
X61600Y161200D02*
Y192800D01*
Y161200D02*
X74200D01*
Y192800D01*
X61600D02*
X74200D01*
X67303Y156433D02*
X92894D01*
X67303Y85567D02*
Y156433D01*
Y85567D02*
X92894D01*
X165138Y156433D02*
X167697D01*
Y146787D02*
Y156433D01*
Y85567D02*
Y95213D01*
X165138Y85567D02*
X167697D01*
X209200Y101000D02*
Y116000D01*
X200600Y117100D02*
X204400D01*
X200600Y99900D02*
X204400D01*
X188705Y51000D02*
X189734D01*
X188705D02*
Y52030D01*
X204453Y51000D02*
Y52030D01*
X203423Y51000D02*
X204453D01*
X203423Y66748D02*
X204453D01*
Y65719D02*
Y66748D01*
X188705Y65719D02*
Y66748D01*
X189734D01*
X155600Y50221D02*
Y59921D01*
X167400Y50221D02*
Y59921D01*
X155600Y50221D02*
X167400D01*
X155600Y59921D02*
X167400D01*
X142600Y50300D02*
Y60000D01*
X154400Y50300D02*
Y60000D01*
X142600Y50300D02*
X154400D01*
X142600Y60000D02*
X154400D01*
X56500Y46000D02*
X210500D01*
X56500Y196000D02*
X210500D01*
X56500D02*
X77500D01*
X210500Y46000D02*
X210500Y196000D01*
X189500D02*
X210500D01*
Y175000D02*
Y196000D01*
Y46000D02*
Y67000D01*
X189500Y46000D02*
X210500D01*
X56500D02*
Y67000D01*
Y46000D02*
X77500D01*
X56500D02*
X56500Y196000D01*
D11*
X197597Y181562D02*
X196859Y181988D01*
Y181136D01*
X197597Y181562D01*
X165792Y56621D02*
X165054Y57047D01*
Y56195D01*
X165792Y56621D01*
X152792Y56700D02*
X152054Y57126D01*
Y56274D01*
X152792Y56700D01*
D12*
X97224Y81630D02*
X96437D01*
X97224D01*
X190083Y47063D02*
X189295D01*
X190083D01*
X49252Y64575D02*
X50827Y63000D01*
X49252Y61425D02*
X50827Y63000D01*
X46102D02*
X50827D01*
Y76780D02*
X52795D01*
X50827Y49220D02*
X52795D01*
X76614Y70087D02*
Y71268D01*
X69724Y47646D02*
X70512D01*
X56535Y47252D02*
Y78748D01*
X59291Y47252D02*
Y78748D01*
X54173Y47252D02*
X60276D01*
X54173Y78748D02*
X60276D01*
X54173Y47252D02*
Y78748D01*
X69724Y78354D02*
X70512D01*
X76614Y54732D02*
Y55913D01*
X46102Y84260D02*
X50827D01*
Y41740D02*
Y84260D01*
X46102Y41740D02*
X50827D01*
D13*
X142500Y71500D02*
X141750Y71933D01*
Y71067D01*
X142500Y71500D01*
X210000Y140000D02*
X219500D01*
X210000Y130500D02*
X219500D01*
X190000Y157500D02*
X190500Y158000D01*
X194000D01*
X190000Y126000D02*
Y157500D01*
Y126000D02*
X194000D01*
X206500D02*
X210000D01*
Y130500D01*
Y140000D02*
Y158000D01*
X206000D02*
X210000D01*
X219500Y140000D02*
X223500D01*
Y130500D02*
Y140000D01*
X219500Y130500D02*
X223500D01*
X219500Y140000D02*
X220500D01*
X223500Y137000D01*
X216000Y140000D02*
X217000D01*
X223500Y133000D02*
Y133500D01*
X217000Y140000D02*
X223500Y133500D01*
X223000Y130500D02*
Y131000D01*
X214000Y140000D02*
X223000Y131000D01*
X211000Y140000D02*
X220500Y130500D01*
X210500Y137000D02*
X217000Y130500D01*
X210000D02*
Y137000D01*
X177001Y54000D02*
X177668D01*
X179001Y52667D01*
X177668Y51334D01*
X177001D01*
X179001Y52667D02*
X181000D01*
X190001Y73500D02*
X194000Y70834D01*
X190001D02*
X194000Y73500D01*
D14*
X99897Y69161D02*
X99037Y68634D01*
X98801Y67653D01*
X138712Y53839D02*
X139531Y54170D01*
X140076Y54867D01*
X140199Y55742D01*
X98800Y55337D02*
X99239Y54277D01*
X100300Y53837D01*
X140199Y68066D02*
X139672Y68926D01*
X138691Y69161D01*
X140000Y64100D02*
X139043Y63910D01*
X138232Y63368D01*
X137690Y62557D01*
X137500Y61600D01*
X137690Y60643D01*
X138232Y59832D01*
X139043Y59290D01*
X140000Y59100D01*
X100300Y53837D02*
X138700D01*
X99906Y69163D02*
X138700D01*
X98800Y55337D02*
Y67663D01*
X140200Y55781D02*
Y59100D01*
Y64100D02*
Y68056D01*
D15*
X182000Y118500D02*
X182500D01*
Y127500D01*
X182000D02*
X182500D01*
X175500Y118500D02*
X176000D01*
X175500D02*
Y127500D01*
X176000D01*
X80900Y188600D02*
Y189400D01*
X84100Y188600D02*
Y189400D01*
X84800Y182800D02*
Y195200D01*
X80200Y182800D02*
X84800D01*
X80200D02*
Y195200D01*
X84800D01*
X175600Y188249D02*
Y189049D01*
X178799Y188249D02*
Y189049D01*
X179499Y182449D02*
Y194849D01*
X174899Y182449D02*
X179499D01*
X174899D02*
Y194849D01*
X179499D01*
X200100Y176400D02*
X200900D01*
X200100Y179600D02*
X200900D01*
X194300Y180300D02*
X206700D01*
Y175700D02*
Y180300D01*
X194300Y175700D02*
X206700D01*
X194300D02*
Y180300D01*
X191200Y105100D02*
X195800D01*
Y117500D01*
X191200D02*
X195800D01*
X191200Y105100D02*
Y117500D01*
X191900Y110900D02*
Y111700D01*
X195100Y110900D02*
Y111700D01*
X197000Y88700D02*
Y93300D01*
Y88700D02*
X209400D01*
Y93300D01*
X197000D02*
X209400D01*
X202800Y92600D02*
X203600D01*
X202800Y89400D02*
X203600D01*
X196300Y73700D02*
Y78300D01*
Y73700D02*
X208700D01*
Y78300D01*
X196300D02*
X208700D01*
X202100Y77600D02*
X202900D01*
X202100Y74400D02*
X202900D01*
X170800Y60200D02*
Y64800D01*
Y60200D02*
X183200D01*
Y64800D01*
X170800D02*
X183200D01*
X176600Y64100D02*
X177400D01*
X176600Y60900D02*
X177400D01*
X84100Y48176D02*
Y52776D01*
Y48176D02*
X96500D01*
Y52776D01*
X84100D02*
X96500D01*
X89900Y52076D02*
X90700D01*
X89900Y48876D02*
X90700D01*
D16*
X184500Y128500D02*
X189500D01*
X184500Y119500D02*
Y128500D01*
Y117500D02*
Y119500D01*
Y117500D02*
X189500D01*
Y128500D01*
X185000Y121500D02*
Y124500D01*
X189000Y121500D02*
Y124500D01*
X146000Y175500D02*
X151000D01*
Y184500D01*
Y186500D01*
X146000D02*
X151000D01*
X146000Y175500D02*
Y186500D01*
X150500Y179500D02*
Y182500D01*
X146500Y179500D02*
Y182500D01*
X135900Y175500D02*
X140900D01*
Y184500D01*
Y186500D01*
X135900D02*
X140900D01*
X135900Y175500D02*
Y186500D01*
X140400Y179500D02*
Y182500D01*
X136400Y179500D02*
Y182500D01*
X98501Y179000D02*
X103500D01*
Y188000D01*
Y190000D01*
X98501D02*
X103500D01*
X98501Y179000D02*
Y190000D01*
X103000Y183000D02*
Y186000D01*
X99001Y183000D02*
Y186000D01*
X88500Y179000D02*
X93500D01*
Y188000D01*
Y190000D01*
X88500D02*
X93500D01*
X88500Y179000D02*
Y190000D01*
X93000Y183000D02*
Y186000D01*
X89000Y183000D02*
Y186000D01*
X206200Y187149D02*
Y190149D01*
X202200Y187149D02*
Y190149D01*
X206699Y183149D02*
Y194149D01*
X201699Y183149D02*
X206699D01*
X201699D02*
Y185149D01*
Y194149D01*
X206699D01*
X187755Y182645D02*
X194644D01*
X187755Y194653D02*
X194644D01*
X178000Y89851D02*
Y92851D01*
X182001Y89851D02*
Y92851D01*
X177500Y85851D02*
Y96851D01*
X182501D01*
Y94851D02*
Y96851D01*
Y85851D02*
Y94851D01*
X177500Y85851D02*
X182501D01*
X195500Y96900D02*
Y99900D01*
X191500Y96900D02*
Y99900D01*
X196000Y92900D02*
Y103900D01*
X191000Y92900D02*
X196000D01*
X191000D02*
Y94900D01*
Y103900D01*
X196000D01*
X162000Y81000D02*
X165000D01*
X162000Y77000D02*
X165000D01*
X158000Y81500D02*
X169000D01*
Y76500D02*
Y81500D01*
X167000Y76500D02*
X169000D01*
X158000D02*
X167000D01*
X158000D02*
Y81500D01*
X162000Y75500D02*
X165000D01*
X162000Y71500D02*
X165000D01*
X158000Y76000D02*
X169000D01*
Y71000D02*
Y76000D01*
X167000Y71000D02*
X169000D01*
X158000D02*
X167000D01*
X158000D02*
Y76000D01*
X159949Y64501D02*
X162949D01*
X159949Y68501D02*
X162949D01*
X155949Y64001D02*
X166949D01*
X155949D02*
Y69001D01*
X157949D01*
X166949D01*
Y64001D02*
Y69001D01*
X146949Y64500D02*
X149949D01*
X146949Y68501D02*
X149949D01*
X142949Y64000D02*
X153949D01*
X142949D02*
Y69001D01*
X144949D01*
X153949D01*
Y64000D02*
Y69001D01*
D17*
X199400Y164500D02*
Y174400D01*
X209900Y164500D02*
Y174500D01*
X189900D02*
X209900D01*
X189900Y164500D02*
Y174500D01*
Y164500D02*
X209900D01*
D18*
X65984Y63000D02*
X66772D01*
D19*
X193000Y151333D02*
X192904Y151619D01*
X192714Y151810D01*
X192524Y151905D01*
X192143Y152000D01*
X191857D01*
X191476Y151905D01*
X191286Y151810D01*
X191095Y151619D01*
X191000Y151333D01*
Y151143D01*
X191095Y150857D01*
X191286Y150667D01*
X191476Y150572D01*
X191857Y150477D01*
X192143D01*
X192524Y150572D01*
X192714Y150667D01*
X192904Y150857D01*
X193000Y151143D01*
Y151333D01*
X192904Y151524D01*
X192714Y151714D01*
X192524Y151810D01*
X192143Y151905D01*
X191857D01*
X191476Y151810D01*
X191286Y151714D01*
X191095Y151524D01*
X191000Y151333D01*
Y151143D02*
X191095Y150953D01*
X191286Y150762D01*
X191476Y150667D01*
X191857Y150572D01*
X192143D01*
X192524Y150667D01*
X192714Y150762D01*
X192904Y150953D01*
X193000Y151143D01*
Y149915D02*
X191000D01*
X193000Y149820D02*
X191190Y148677D01*
X192809Y149820D02*
X191000Y148677D01*
X193000D02*
X191000D01*
X193000Y150200D02*
Y149820D01*
Y148963D02*
Y148391D01*
X191000Y150200D02*
Y149629D01*
X193000Y136334D02*
X192904Y136619D01*
X192714Y136810D01*
X192524Y136905D01*
X192143Y137000D01*
X191857D01*
X191476Y136905D01*
X191286Y136810D01*
X191095Y136619D01*
X191000Y136334D01*
Y136143D01*
X191095Y135857D01*
X191286Y135667D01*
X191476Y135572D01*
X191857Y135477D01*
X192143D01*
X192524Y135572D01*
X192714Y135667D01*
X192904Y135857D01*
X193000Y136143D01*
Y136334D01*
X192904Y136524D01*
X192714Y136714D01*
X192524Y136810D01*
X192143Y136905D01*
X191857D01*
X191476Y136810D01*
X191286Y136714D01*
X191095Y136524D01*
X191000Y136334D01*
Y136143D02*
X191095Y135953D01*
X191286Y135762D01*
X191476Y135667D01*
X191857Y135572D01*
X192143D01*
X192524Y135667D01*
X192714Y135762D01*
X192904Y135953D01*
X193000Y136143D01*
Y134915D02*
X191000D01*
X193000Y134819D02*
X191000D01*
X192428Y134248D02*
X191666D01*
X193000Y135200D02*
Y133677D01*
X192428D01*
X193000Y133772D01*
X192047Y134819D02*
Y134248D01*
X191000Y135200D02*
Y134534D01*
X193000Y133115D02*
X191000D01*
X193000Y133020D02*
X191000D01*
X192428Y132449D02*
X191666D01*
X193000Y133401D02*
Y131877D01*
X192428D01*
X193000Y131973D01*
X192047Y133020D02*
Y132449D01*
X191000Y133401D02*
Y132734D01*
X94500Y54834D02*
X96166D01*
X96500Y55167D01*
Y55834D01*
X96166Y56167D01*
X94500D01*
Y58166D02*
Y56833D01*
X95500D01*
X95167Y57500D01*
Y57833D01*
X95500Y58166D01*
X96166D01*
X96500Y57833D01*
Y57166D01*
X96166Y56833D01*
X183000Y49334D02*
X184666D01*
X185000Y49667D01*
Y50334D01*
X184666Y50667D01*
X183000D01*
X185000Y52333D02*
X183000D01*
X184000Y51333D01*
Y52666D01*
X58000Y187334D02*
X59666D01*
X60000Y187667D01*
Y188334D01*
X59666Y188667D01*
X58000D01*
X58333Y189333D02*
X58000Y189666D01*
Y190333D01*
X58333Y190666D01*
X58667D01*
X59000Y190333D01*
Y190000D01*
Y190333D01*
X59333Y190666D01*
X59666D01*
X60000Y190333D01*
Y189666D01*
X59666Y189333D01*
X109334Y170500D02*
Y168834D01*
X109667Y168500D01*
X110334D01*
X110667Y168834D01*
Y170500D01*
X112666Y168500D02*
X111333D01*
X112666Y169833D01*
Y170167D01*
X112333Y170500D01*
X111667D01*
X111333Y170167D01*
X74167Y160000D02*
Y158334D01*
X74500Y158000D01*
X75167D01*
X75500Y158334D01*
Y160000D01*
X76166Y158000D02*
X76833D01*
X76500D01*
Y160000D01*
X76166Y159667D01*
X152834Y178000D02*
X154167D01*
X153501D01*
Y176000D01*
X154833D02*
Y178000D01*
X155833D01*
X156167Y177666D01*
Y177000D01*
X155833Y176667D01*
X154833D01*
X158166Y176000D02*
X156833D01*
X158166Y177333D01*
Y177666D01*
X157833Y178000D01*
X157166D01*
X156833Y177666D01*
X159167Y178000D02*
X160500D01*
X159834D01*
Y176000D01*
X161167D02*
Y178000D01*
X162167D01*
X162500Y177666D01*
Y177000D01*
X162167Y176667D01*
X161167D01*
X163166Y176000D02*
X163833D01*
X163499D01*
Y178000D01*
X163166Y177666D01*
X186834Y140667D02*
X186500Y140334D01*
Y139667D01*
X186834Y139334D01*
X187167D01*
X187500Y139667D01*
Y140334D01*
X187833Y140667D01*
X188166D01*
X188500Y140334D01*
Y139667D01*
X188166Y139334D01*
X186500Y141334D02*
X188500D01*
X187833Y142000D01*
X188500Y142666D01*
X186500D01*
X188500Y144333D02*
X186500D01*
X187500Y143333D01*
Y144666D01*
X198000Y120167D02*
X197667Y120500D01*
X197001D01*
X196667Y120167D01*
Y119833D01*
X197001Y119500D01*
X197667D01*
X198000Y119167D01*
Y118834D01*
X197667Y118500D01*
X197001D01*
X196667Y118834D01*
X198667Y120500D02*
Y118500D01*
X199333Y119167D01*
X200000Y118500D01*
Y120500D01*
X200666Y118500D02*
X201333D01*
X200999D01*
Y120500D01*
X200666Y120167D01*
X209500Y186001D02*
X207500D01*
Y187001D01*
X207834Y187334D01*
X208500D01*
X208833Y187001D01*
Y186001D01*
Y186667D02*
X209500Y187334D01*
Y188000D02*
Y188667D01*
Y188333D01*
X207500D01*
X207834Y188000D01*
X207500Y190999D02*
X207834Y190333D01*
X208500Y189666D01*
X209166D01*
X209500Y189999D01*
Y190666D01*
X209166Y190999D01*
X208833D01*
X208500Y190666D01*
Y189666D01*
X146001Y70000D02*
Y72000D01*
X147001D01*
X147334Y71667D01*
Y71000D01*
X147001Y70667D01*
X146001D01*
X146667D02*
X147334Y70000D01*
X148000D02*
X148667D01*
X148333D01*
Y72000D01*
X148000Y71667D01*
X149666D02*
X149999Y72000D01*
X150666D01*
X150999Y71667D01*
Y71333D01*
X150666Y71000D01*
X150333D01*
X150666D01*
X150999Y70667D01*
Y70334D01*
X150666Y70000D01*
X149999D01*
X149666Y70334D01*
X168001Y67000D02*
Y69000D01*
X169000D01*
X169334Y68666D01*
Y68000D01*
X169000Y67667D01*
X168001D01*
X168667D02*
X169334Y67000D01*
X170000D02*
X170667D01*
X170333D01*
Y69000D01*
X170000Y68666D01*
X172999Y67000D02*
X171666D01*
X172999Y68333D01*
Y68666D01*
X172666Y69000D01*
X172000D01*
X171666Y68666D01*
X152834Y72500D02*
Y74500D01*
X153834D01*
X154167Y74167D01*
Y73500D01*
X153834Y73167D01*
X152834D01*
X153500D02*
X154167Y72500D01*
X154833D02*
X155500D01*
X155167D01*
Y74500D01*
X154833Y74167D01*
X156500Y72500D02*
X157166D01*
X156833D01*
Y74500D01*
X156500Y74167D01*
X152001Y78000D02*
Y80000D01*
X153000D01*
X153334Y79667D01*
Y79000D01*
X153000Y78667D01*
X152001D01*
X152667D02*
X153334Y78000D01*
X154000D02*
X154667D01*
X154333D01*
Y80000D01*
X154000Y79667D01*
X155666D02*
X156000Y80000D01*
X156666D01*
X156999Y79667D01*
Y78334D01*
X156666Y78000D01*
X156000D01*
X155666Y78334D01*
Y79667D01*
X183334Y90500D02*
Y92500D01*
X184334D01*
X184667Y92167D01*
Y91500D01*
X184334Y91167D01*
X183334D01*
X184000D02*
X184667Y90500D01*
X185333Y90834D02*
X185667Y90500D01*
X186333D01*
X186666Y90834D01*
Y92167D01*
X186333Y92500D01*
X185667D01*
X185333Y92167D01*
Y91833D01*
X185667Y91500D01*
X186666D01*
X89334Y191000D02*
Y193000D01*
X90334D01*
X90667Y192666D01*
Y192000D01*
X90334Y191667D01*
X89334D01*
X90000D02*
X90667Y191000D01*
X91333Y192666D02*
X91667Y193000D01*
X92333D01*
X92666Y192666D01*
Y192333D01*
X92333Y192000D01*
X92666Y191667D01*
Y191334D01*
X92333Y191000D01*
X91667D01*
X91333Y191334D01*
Y191667D01*
X91667Y192000D01*
X91333Y192333D01*
Y192666D01*
X91667Y192000D02*
X92333D01*
X99334Y191500D02*
Y193500D01*
X100334D01*
X100667Y193166D01*
Y192500D01*
X100334Y192167D01*
X99334D01*
X100000D02*
X100667Y191500D01*
X101333Y193500D02*
X102666D01*
Y193166D01*
X101333Y191834D01*
Y191500D01*
X185334Y130000D02*
Y132000D01*
X186334D01*
X186667Y131667D01*
Y131000D01*
X186334Y130667D01*
X185334D01*
X186000D02*
X186667Y130000D01*
X188333D02*
Y132000D01*
X187333Y131000D01*
X188666D01*
X136834Y187500D02*
Y189500D01*
X137834D01*
X138167Y189166D01*
Y188500D01*
X137834Y188167D01*
X136834D01*
X137500D02*
X138167Y187500D01*
X138833Y189166D02*
X139166Y189500D01*
X139833D01*
X140166Y189166D01*
Y188833D01*
X139833Y188500D01*
X139500D01*
X139833D01*
X140166Y188167D01*
Y187834D01*
X139833Y187500D01*
X139166D01*
X138833Y187834D01*
X146834Y187500D02*
Y189500D01*
X147834D01*
X148167Y189166D01*
Y188500D01*
X147834Y188167D01*
X146834D01*
X147500D02*
X148167Y187500D01*
X150166D02*
X148833D01*
X150166Y188833D01*
Y189166D01*
X149833Y189500D01*
X149167D01*
X148833Y189166D01*
X190000Y97167D02*
X188000D01*
Y98167D01*
X188333Y98500D01*
X189000D01*
X189333Y98167D01*
Y97167D01*
Y97834D02*
X190000Y98500D01*
Y99167D02*
Y99833D01*
Y99500D01*
X188000D01*
X188333Y99167D01*
X161167Y54834D02*
Y56166D01*
X160834Y56500D01*
X160167D01*
X159834Y56166D01*
Y54834D01*
X160167Y54500D01*
X160834D01*
X160500Y55167D02*
X161167Y54500D01*
X160834D02*
X161167Y54834D01*
X163166Y54500D02*
X161833D01*
X163166Y55833D01*
Y56166D01*
X162833Y56500D01*
X162167D01*
X161833Y56166D01*
X148500Y54834D02*
Y56166D01*
X148167Y56500D01*
X147500D01*
X147167Y56166D01*
Y54834D01*
X147500Y54500D01*
X148167D01*
X147834Y55167D02*
X148500Y54500D01*
X148167D02*
X148500Y54834D01*
X149167Y54500D02*
X149833D01*
X149500D01*
Y56500D01*
X149167Y56166D01*
X175668Y134000D02*
Y132000D01*
X177001D01*
X179000Y134000D02*
X177667D01*
Y132000D01*
X179000D01*
X177667Y133000D02*
X178333D01*
X179666Y134000D02*
Y132000D01*
X180666D01*
X180999Y132334D01*
Y133667D01*
X180666Y134000D01*
X179666D01*
X181666Y132000D02*
X182332D01*
X181999D01*
Y134000D01*
X181666Y133667D01*
X185500Y176500D02*
X184834D01*
X185167D01*
Y174834D01*
X184834Y174500D01*
X184501D01*
X184167Y174834D01*
X186167Y174500D02*
Y176500D01*
X187167D01*
X187500Y176166D01*
Y175500D01*
X187167Y175167D01*
X186167D01*
X188166Y174500D02*
X188833D01*
X188499D01*
Y176500D01*
X188166Y176166D01*
X60000Y83000D02*
X59334D01*
X59667D01*
Y81334D01*
X59334Y81000D01*
X59000D01*
X58667Y81334D01*
X60666Y81000D02*
X61333D01*
X61000D01*
Y83000D01*
X60666Y82666D01*
X181834Y182000D02*
X182501D01*
X182167D01*
Y180000D01*
X181834D01*
X182501D01*
X184833Y181667D02*
X184500Y182000D01*
X183833D01*
X183500Y181667D01*
Y180334D01*
X183833Y180000D01*
X184500D01*
X184833Y180334D01*
X185500Y180000D02*
X186166D01*
X185833D01*
Y182000D01*
X185500Y181667D01*
X85833Y57266D02*
X85500Y57599D01*
X84833D01*
X84500Y57266D01*
Y55933D01*
X84833Y55600D01*
X85500D01*
X85833Y55933D01*
X86499Y55600D02*
X87166D01*
X86833D01*
Y57599D01*
X86499Y57266D01*
X89498Y57599D02*
X88165D01*
Y56600D01*
X88832Y56933D01*
X89165D01*
X89498Y56600D01*
Y55933D01*
X89165Y55600D01*
X88499D01*
X88165Y55933D01*
X77833Y187834D02*
X77500Y187501D01*
Y186834D01*
X77833Y186501D01*
X79166D01*
X79500Y186834D01*
Y187501D01*
X79166Y187834D01*
X79500Y188500D02*
Y189167D01*
Y188833D01*
X77500D01*
X77833Y188500D01*
Y190166D02*
X77500Y190499D01*
Y191166D01*
X77833Y191499D01*
X78167D01*
X78500Y191166D01*
Y190833D01*
Y191166D01*
X78833Y191499D01*
X79166D01*
X79500Y191166D01*
Y190499D01*
X79166Y190166D01*
X189334Y180166D02*
X189000Y180500D01*
X188334D01*
X188001Y180166D01*
Y178834D01*
X188334Y178500D01*
X189000D01*
X189334Y178834D01*
X190000Y178500D02*
X190667D01*
X190333D01*
Y180500D01*
X190000Y180166D01*
X192999Y178500D02*
X191666D01*
X192999Y179833D01*
Y180166D01*
X192666Y180500D01*
X191999D01*
X191666Y180166D01*
X202167Y96166D02*
X201834Y96500D01*
X201167D01*
X200834Y96166D01*
Y94834D01*
X201167Y94500D01*
X201834D01*
X202167Y94834D01*
X202833Y94500D02*
X203500D01*
X203167D01*
Y96500D01*
X202833Y96166D01*
X204500Y94500D02*
X205166D01*
X204833D01*
Y96500D01*
X204500Y96166D01*
X175834Y58666D02*
X175501Y59000D01*
X174834D01*
X174501Y58666D01*
Y57334D01*
X174834Y57000D01*
X175501D01*
X175834Y57334D01*
X176500Y57000D02*
X177167D01*
X176833D01*
Y59000D01*
X176500Y58666D01*
X178166D02*
X178499Y59000D01*
X179166D01*
X179499Y58666D01*
Y57334D01*
X179166Y57000D01*
X178499D01*
X178166Y57334D01*
Y58666D01*
X202167Y81166D02*
X201834Y81500D01*
X201167D01*
X200834Y81166D01*
Y79834D01*
X201167Y79500D01*
X201834D01*
X202167Y79834D01*
X202833D02*
X203167Y79500D01*
X203833D01*
X204166Y79834D01*
Y81166D01*
X203833Y81500D01*
X203167D01*
X202833Y81166D01*
Y80833D01*
X203167Y80500D01*
X204166D01*
X172334Y188167D02*
X172000Y187834D01*
Y187167D01*
X172334Y186834D01*
X173666D01*
X174000Y187167D01*
Y187834D01*
X173666Y188167D01*
X174000Y189833D02*
X172000D01*
X173000Y188833D01*
Y190166D01*
X188333Y111500D02*
X188000Y111167D01*
Y110500D01*
X188333Y110167D01*
X189666D01*
X190000Y110500D01*
Y111167D01*
X189666Y111500D01*
X190000Y112167D02*
Y112833D01*
Y112500D01*
X188000D01*
X188333Y112167D01*
M02*
